<svg width="166" height="56" viewBox="0 0 166 56" fill="none" xmlns="http://www.w3.org/2000/svg">
<path d="M146.075 0C156.524 0 165.1 8.01232 165.997 18.228C166.031 18.6196 165.706 18.9414 165.312 18.9414C159.105 18.9414 154.072 23.1816 154.072 28.4121C154.072 33.6424 159.105 37.8828 165.312 37.8828C165.669 37.8828 165.958 38.1818 165.914 38.5353C164.668 48.3839 156.262 56 146.075 56H19.9238C9.73897 55.9999 1.33338 48.3869 0.0849252 38.5411C0.0397191 38.1846 0.331966 37.8828 0.691332 37.8828C6.89867 37.8828 11.9313 33.6424 11.9316 28.4121C11.9316 23.1816 6.89882 18.9414 0.691332 18.9414C0.295592 18.9414 -0.0321795 18.6173 0.00252537 18.2231C0.901655 8.00983 9.47694 6.97554e-05 19.9238 0H146.075Z" fill="#E5E5E5"/>
<path d="M47.8005 27.8C48.6139 27.9733 49.2672 28.38 49.7605 29.02C50.2539 29.6467 50.5005 30.3667 50.5005 31.18C50.5005 32.3533 50.0872 33.2867 49.2605 33.98C48.4472 34.66 47.3072 35 45.8405 35H39.3005V20.96H45.6205C47.0472 20.96 48.1605 21.2867 48.9605 21.94C49.7739 22.5933 50.1805 23.48 50.1805 24.6C50.1805 25.4267 49.9605 26.1133 49.5205 26.66C49.0939 27.2067 48.5205 27.5867 47.8005 27.8ZM42.7205 26.64H44.9605C45.5205 26.64 45.9472 26.52 46.2405 26.28C46.5472 26.0267 46.7005 25.66 46.7005 25.18C46.7005 24.7 46.5472 24.3333 46.2405 24.08C45.9472 23.8267 45.5205 23.7 44.9605 23.7H42.7205V26.64ZM45.2405 32.24C45.8139 32.24 46.2539 32.1133 46.5605 31.86C46.8805 31.5933 47.0405 31.2133 47.0405 30.72C47.0405 30.2267 46.8739 29.84 46.5405 29.56C46.2205 29.28 45.7739 29.14 45.2005 29.14H42.7205V32.24H45.2405ZM63.5041 23.84V35H60.0841V33.48C59.7375 33.9733 59.2641 34.3733 58.6641 34.68C58.0775 34.9733 57.4241 35.12 56.7041 35.12C55.8508 35.12 55.0975 34.9333 54.4441 34.56C53.7908 34.1733 53.2841 33.62 52.9241 32.9C52.5641 32.18 52.3841 31.3333 52.3841 30.36V23.84H55.7841V29.9C55.7841 30.6467 55.9775 31.2267 56.3641 31.64C56.7508 32.0533 57.2708 32.26 57.9241 32.26C58.5908 32.26 59.1175 32.0533 59.5041 31.64C59.8908 31.2267 60.0841 30.6467 60.0841 29.9V23.84H63.5041ZM77.3607 23.84L70.3607 40.3H66.6807L69.2407 34.62L64.7007 23.84H68.5207L71.1007 30.82L73.6607 23.84H77.3607ZM82.2557 27.96C82.2557 26.5733 82.5557 25.34 83.1557 24.26C83.7557 23.1667 84.589 22.32 85.6557 21.72C86.7357 21.1067 87.9557 20.8 89.3157 20.8C90.9824 20.8 92.409 21.24 93.5957 22.12C94.7824 23 95.5757 24.2 95.9757 25.72H92.2157C91.9357 25.1333 91.5357 24.6867 91.0157 24.38C90.509 24.0733 89.929 23.92 89.2757 23.92C88.2224 23.92 87.369 24.2867 86.7157 25.02C86.0624 25.7533 85.7357 26.7333 85.7357 27.96C85.7357 29.1867 86.0624 30.1667 86.7157 30.9C87.369 31.6333 88.2224 32 89.2757 32C89.929 32 90.509 31.8467 91.0157 31.54C91.5357 31.2333 91.9357 30.7867 92.2157 30.2H95.9757C95.5757 31.72 94.7824 32.92 93.5957 33.8C92.409 34.6667 90.9824 35.1 89.3157 35.1C87.9557 35.1 86.7357 34.8 85.6557 34.2C84.589 33.5867 83.7557 32.74 83.1557 31.66C82.5557 30.58 82.2557 29.3467 82.2557 27.96ZM103.15 35.16C102.057 35.16 101.07 34.9267 100.19 34.46C99.3234 33.9933 98.6367 33.3267 98.1301 32.46C97.6367 31.5933 97.3901 30.58 97.3901 29.42C97.3901 28.2733 97.6434 27.2667 98.1501 26.4C98.6567 25.52 99.3501 24.8467 100.23 24.38C101.11 23.9133 102.097 23.68 103.19 23.68C104.283 23.68 105.27 23.9133 106.15 24.38C107.03 24.8467 107.723 25.52 108.23 26.4C108.737 27.2667 108.99 28.2733 108.99 29.42C108.99 30.5667 108.73 31.58 108.21 32.46C107.703 33.3267 107.003 33.9933 106.11 34.46C105.23 34.9267 104.243 35.16 103.15 35.16ZM103.15 32.2C103.803 32.2 104.357 31.96 104.81 31.48C105.277 31 105.51 30.3133 105.51 29.42C105.51 28.5267 105.283 27.84 104.83 27.36C104.39 26.88 103.843 26.64 103.19 26.64C102.523 26.64 101.97 26.88 101.53 27.36C101.09 27.8267 100.87 28.5133 100.87 29.42C100.87 30.3133 101.083 31 101.51 31.48C101.95 31.96 102.497 32.2 103.15 32.2ZM112.524 22.68C111.924 22.68 111.431 22.5067 111.044 22.16C110.671 21.8 110.484 21.36 110.484 20.84C110.484 20.3067 110.671 19.8667 111.044 19.52C111.431 19.16 111.924 18.98 112.524 18.98C113.111 18.98 113.591 19.16 113.964 19.52C114.351 19.8667 114.544 20.3067 114.544 20.84C114.544 21.36 114.351 21.8 113.964 22.16C113.591 22.5067 113.111 22.68 112.524 22.68ZM114.224 23.84V35H110.804V23.84H114.224ZM123.503 23.72C124.81 23.72 125.85 24.1467 126.623 25C127.41 25.84 127.803 27 127.803 28.48V35H124.403V28.94C124.403 28.1933 124.21 27.6133 123.823 27.2C123.436 26.7867 122.916 26.58 122.263 26.58C121.61 26.58 121.09 26.7867 120.703 27.2C120.316 27.6133 120.123 28.1933 120.123 28.94V35H116.703V23.84H120.123V25.32C120.47 24.8267 120.936 24.44 121.523 24.16C122.11 23.8667 122.77 23.72 123.503 23.72Z" fill="#111111" fill-opacity="0.98"/>
</svg>
