<svg width="432" height="253" viewBox="0 0 432 253" fill="none" xmlns="http://www.w3.org/2000/svg">
<g filter="url(#filter0_d_52_4422)">
<path d="M426 205C426 227.091 408.091 245 386 245H52C29.9086 245 12 227.091 12 205V84.122C12 74.8307 22.7087 68.5596 32 68.5596C54.0914 68.5596 72 50.5037 72 28.2305C72 16.5657 80.1281 0 91.7929 0H386C408.091 0 426 17.9086 426 40V205Z" fill="#1E1E1E"/>
<circle cx="34" cy="32" r="30" fill="#E0A529"/>
<path d="M28.8484 24.728V19.64H37.7124V43H32.0164V24.728H28.8484Z" fill="#E5E5E5"/>
<path d="M112.29 35.736C112.29 33.5173 112.77 31.544 113.73 29.816C114.69 28.0667 116.024 26.712 117.73 25.752C119.458 24.7707 121.41 24.28 123.586 24.28C126.253 24.28 128.536 24.984 130.434 26.392C132.333 27.8 133.602 29.72 134.242 32.152H128.226C127.778 31.2133 127.138 30.4987 126.306 30.008C125.496 29.5173 124.568 29.272 123.522 29.272C121.837 29.272 120.472 29.8587 119.426 31.032C118.381 32.2053 117.858 33.7733 117.858 35.736C117.858 37.6987 118.381 39.2667 119.426 40.44C120.472 41.6133 121.837 42.2 123.522 42.2C124.568 42.2 125.496 41.9547 126.306 41.464C127.138 40.9733 127.778 40.2587 128.226 39.32H134.242C133.602 41.752 132.333 43.672 130.434 45.08C128.536 46.4667 126.253 47.16 123.586 47.16C121.41 47.16 119.458 46.68 117.73 45.72C116.024 44.7387 114.69 43.384 113.73 41.656C112.77 39.928 112.29 37.9547 112.29 35.736ZM143.065 32.12C143.705 31.1387 144.505 30.3707 145.465 29.816C146.425 29.24 147.492 28.952 148.665 28.952V34.744H147.161C145.796 34.744 144.772 35.0427 144.089 35.64C143.407 36.216 143.065 37.24 143.065 38.712V47H137.593V29.144H143.065V32.12ZM168.113 37.784C168.113 38.296 168.081 38.8293 168.017 39.384H155.633C155.718 40.4933 156.07 41.3467 156.689 41.944C157.329 42.52 158.108 42.808 159.025 42.808C160.39 42.808 161.34 42.232 161.873 41.08H167.697C167.398 42.2533 166.854 43.3093 166.065 44.248C165.297 45.1867 164.326 45.9227 163.153 46.456C161.98 46.9893 160.668 47.256 159.217 47.256C157.468 47.256 155.91 46.8827 154.545 46.136C153.18 45.3893 152.113 44.3227 151.345 42.936C150.577 41.5493 150.193 39.928 150.193 38.072C150.193 36.216 150.566 34.5947 151.313 33.208C152.081 31.8213 153.148 30.7547 154.513 30.008C155.878 29.2613 157.446 28.888 159.217 28.888C160.945 28.888 162.481 29.2507 163.825 29.976C165.169 30.7013 166.214 31.736 166.961 33.08C167.729 34.424 168.113 35.992 168.113 37.784ZM162.513 36.344C162.513 35.4053 162.193 34.6587 161.553 34.104C160.913 33.5493 160.113 33.272 159.153 33.272C158.236 33.272 157.457 33.5387 156.817 34.072C156.198 34.6053 155.814 35.3627 155.665 36.344H162.513ZM169.912 38.04C169.912 36.2053 170.253 34.5947 170.936 33.208C171.64 31.8213 172.589 30.7547 173.784 30.008C174.978 29.2613 176.312 28.888 177.784 28.888C179.042 28.888 180.141 29.144 181.08 29.656C182.04 30.168 182.776 30.84 183.288 31.672V29.144H188.76V47H183.288V44.472C182.754 45.304 182.008 45.976 181.048 46.488C180.109 47 179.01 47.256 177.752 47.256C176.301 47.256 174.978 46.8827 173.784 46.136C172.589 45.368 171.64 44.2907 170.936 42.904C170.253 41.496 169.912 39.8747 169.912 38.04ZM183.288 38.072C183.288 36.7067 182.904 35.6293 182.136 34.84C181.389 34.0507 180.472 33.656 179.384 33.656C178.296 33.656 177.368 34.0507 176.6 34.84C175.853 35.608 175.48 36.6747 175.48 38.04C175.48 39.4053 175.853 40.4933 176.6 41.304C177.368 42.0933 178.296 42.488 179.384 42.488C180.472 42.488 181.389 42.0933 182.136 41.304C182.904 40.5147 183.288 39.4373 183.288 38.072ZM202.67 42.36V47H199.886C197.902 47 196.356 46.52 195.246 45.56C194.137 44.5787 193.582 42.9893 193.582 40.792V33.688H191.406V29.144H193.582V24.792H199.054V29.144H202.638V33.688H199.054V40.856C199.054 41.3893 199.182 41.7733 199.438 42.008C199.694 42.2427 200.121 42.36 200.718 42.36H202.67ZM222.55 37.784C222.55 38.296 222.518 38.8293 222.454 39.384H210.07C210.156 40.4933 210.508 41.3467 211.126 41.944C211.766 42.52 212.545 42.808 213.462 42.808C214.828 42.808 215.777 42.232 216.31 41.08H222.134C221.836 42.2533 221.292 43.3093 220.502 44.248C219.734 45.1867 218.764 45.9227 217.59 46.456C216.417 46.9893 215.105 47.256 213.654 47.256C211.905 47.256 210.348 46.8827 208.982 46.136C207.617 45.3893 206.55 44.3227 205.782 42.936C205.014 41.5493 204.63 39.928 204.63 38.072C204.63 36.216 205.004 34.5947 205.75 33.208C206.518 31.8213 207.585 30.7547 208.95 30.008C210.316 29.2613 211.884 28.888 213.654 28.888C215.382 28.888 216.918 29.2507 218.262 29.976C219.606 30.7013 220.652 31.736 221.398 33.08C222.166 34.424 222.55 35.992 222.55 37.784ZM216.95 36.344C216.95 35.4053 216.63 34.6587 215.99 34.104C215.35 33.5493 214.55 33.272 213.59 33.272C212.673 33.272 211.894 33.5387 211.254 34.072C210.636 34.6053 210.252 35.3627 210.102 36.344H216.95ZM231.13 38.04C231.13 36.2053 231.472 34.5947 232.154 33.208C232.858 31.8213 233.808 30.7547 235.002 30.008C236.197 29.2613 237.53 28.888 239.002 28.888C240.261 28.888 241.36 29.144 242.298 29.656C243.258 30.168 243.994 30.84 244.506 31.672V29.144H249.978V47H244.506V44.472C243.973 45.304 243.226 45.976 242.266 46.488C241.328 47 240.229 47.256 238.97 47.256C237.52 47.256 236.197 46.8827 235.002 46.136C233.808 45.368 232.858 44.2907 232.154 42.904C231.472 41.496 231.13 39.8747 231.13 38.04ZM244.506 38.072C244.506 36.7067 244.122 35.6293 243.354 34.84C242.608 34.0507 241.69 33.656 240.602 33.656C239.514 33.656 238.586 34.0507 237.818 34.84C237.072 35.608 236.698 36.6747 236.698 38.04C236.698 39.4053 237.072 40.4933 237.818 41.304C238.586 42.0933 239.514 42.488 240.602 42.488C241.69 42.488 242.608 42.0933 243.354 41.304C244.122 40.5147 244.506 39.4373 244.506 38.072ZM286.35 29.144L281.518 47H275.47L272.654 35.416L269.742 47H263.726L258.862 29.144H264.334L266.862 41.912L269.87 29.144H275.662L278.702 41.848L281.198 29.144H286.35ZM287.349 38.04C287.349 36.2053 287.69 34.5947 288.373 33.208C289.077 31.8213 290.026 30.7547 291.221 30.008C292.416 29.2613 293.749 28.888 295.221 28.888C296.48 28.888 297.578 29.144 298.517 29.656C299.477 30.168 300.213 30.84 300.725 31.672V29.144H306.197V47H300.725V44.472C300.192 45.304 299.445 45.976 298.485 46.488C297.546 47 296.448 47.256 295.189 47.256C293.738 47.256 292.416 46.8827 291.221 46.136C290.026 45.368 289.077 44.2907 288.373 42.904C287.69 41.496 287.349 39.8747 287.349 38.04ZM300.725 38.072C300.725 36.7067 300.341 35.6293 299.573 34.84C298.826 34.0507 297.909 33.656 296.821 33.656C295.733 33.656 294.805 34.0507 294.037 34.84C293.29 35.608 292.917 36.6747 292.917 38.04C292.917 39.4053 293.29 40.4933 294.037 41.304C294.805 42.0933 295.733 42.488 296.821 42.488C297.909 42.488 298.826 42.0933 299.573 41.304C300.341 40.5147 300.725 39.4373 300.725 38.072ZM315.628 23.32V47H310.156V23.32H315.628ZM325.065 23.32V47H319.593V23.32H325.065ZM345.863 37.784C345.863 38.296 345.831 38.8293 345.767 39.384H333.383C333.468 40.4933 333.82 41.3467 334.439 41.944C335.079 42.52 335.858 42.808 336.775 42.808C338.14 42.808 339.09 42.232 339.623 41.08H345.447C345.148 42.2533 344.604 43.3093 343.815 44.248C343.047 45.1867 342.076 45.9227 340.903 46.456C339.73 46.9893 338.418 47.256 336.967 47.256C335.218 47.256 333.66 46.8827 332.295 46.136C330.93 45.3893 329.863 44.3227 329.095 42.936C328.327 41.5493 327.943 39.928 327.943 38.072C327.943 36.216 328.316 34.5947 329.063 33.208C329.831 31.8213 330.898 30.7547 332.263 30.008C333.628 29.2613 335.196 28.888 336.967 28.888C338.695 28.888 340.231 29.2507 341.575 29.976C342.919 30.7013 343.964 31.736 344.711 33.08C345.479 34.424 345.863 35.992 345.863 37.784ZM340.263 36.344C340.263 35.4053 339.943 34.6587 339.303 34.104C338.663 33.5493 337.863 33.272 336.903 33.272C335.986 33.272 335.207 33.5387 334.567 34.072C333.948 34.6053 333.564 35.3627 333.415 36.344H340.263ZM358.702 42.36V47H355.918C353.934 47 352.387 46.52 351.278 45.56C350.168 44.5787 349.614 42.9893 349.614 40.792V33.688H347.438V29.144H349.614V24.792H355.086V29.144H358.67V33.688H355.086V40.856C355.086 41.3893 355.214 41.7733 355.47 42.008C355.726 42.2427 356.152 42.36 356.75 42.36H358.702Z" fill="#E5E5E5"/>
<path d="M47.056 95.272C48.88 95.272 50.456 95.616 51.784 96.304C53.128 96.976 54.152 97.944 54.856 99.208C55.576 100.472 55.936 101.96 55.936 103.672C55.936 105.384 55.576 106.872 54.856 108.136C54.152 109.384 53.128 110.344 51.784 111.016C50.456 111.672 48.88 112 47.056 112H41.848V95.272H47.056ZM47.056 110.2C49.216 110.2 50.864 109.632 52 108.496C53.136 107.344 53.704 105.736 53.704 103.672C53.704 101.592 53.128 99.968 51.976 98.8C50.84 97.632 49.2 97.048 47.056 97.048H44.032V110.2H47.056ZM64.5528 112.216C63.3208 112.216 62.2008 111.936 61.1928 111.376C60.2008 110.816 59.4168 110.024 58.8408 109C58.2808 107.96 58.0008 106.76 58.0008 105.4C58.0008 104.056 58.2888 102.872 58.8648 101.848C59.4568 100.808 60.2568 100.016 61.2648 99.472C62.2728 98.912 63.4008 98.632 64.6488 98.632C65.8968 98.632 67.0248 98.912 68.0328 99.472C69.0408 100.016 69.8328 100.8 70.4088 101.824C71.0008 102.848 71.2968 104.04 71.2968 105.4C71.2968 106.76 70.9928 107.96 70.3848 109C69.7928 110.024 68.9848 110.816 67.9608 111.376C66.9368 111.936 65.8008 112.216 64.5528 112.216ZM64.5528 110.296C65.3368 110.296 66.0728 110.112 66.7608 109.744C67.4488 109.376 68.0008 108.824 68.4168 108.088C68.8488 107.352 69.0648 106.456 69.0648 105.4C69.0648 104.344 68.8568 103.448 68.4408 102.712C68.0248 101.976 67.4808 101.432 66.8088 101.08C66.1368 100.712 65.4088 100.528 64.6248 100.528C63.8248 100.528 63.0888 100.712 62.4168 101.08C61.7608 101.432 61.2328 101.976 60.8328 102.712C60.4328 103.448 60.2328 104.344 60.2328 105.4C60.2328 106.472 60.4248 107.376 60.8088 108.112C61.2088 108.848 61.7368 109.4 62.3928 109.768C63.0488 110.12 63.7688 110.296 64.5528 110.296ZM91.6883 98.848L87.5843 112H85.3283L82.1603 101.56L78.9923 112H76.7363L72.6083 98.848H74.8403L77.8643 109.888L81.1283 98.848H83.3603L86.5523 109.912L89.5283 98.848H91.6883ZM100.264 98.608C101.864 98.608 103.16 99.096 104.152 100.072C105.144 101.032 105.64 102.424 105.64 104.248V112H103.48V104.56C103.48 103.248 103.152 102.248 102.496 101.56C101.84 100.856 100.944 100.504 99.8078 100.504C98.6558 100.504 97.7358 100.864 97.0478 101.584C96.3758 102.304 96.0398 103.352 96.0398 104.728V112H93.8558V98.848H96.0398V100.72C96.4718 100.048 97.0558 99.528 97.7918 99.16C98.5438 98.792 99.3678 98.608 100.264 98.608ZM111.391 94.24V112H109.207V94.24H111.391ZM120.85 112.216C119.618 112.216 118.498 111.936 117.49 111.376C116.498 110.816 115.714 110.024 115.138 109C114.578 107.96 114.298 106.76 114.298 105.4C114.298 104.056 114.586 102.872 115.162 101.848C115.754 100.808 116.554 100.016 117.562 99.472C118.57 98.912 119.698 98.632 120.946 98.632C122.194 98.632 123.322 98.912 124.33 99.472C125.338 100.016 126.13 100.8 126.706 101.824C127.298 102.848 127.594 104.04 127.594 105.4C127.594 106.76 127.29 107.96 126.682 109C126.09 110.024 125.282 110.816 124.258 111.376C123.234 111.936 122.098 112.216 120.85 112.216ZM120.85 110.296C121.634 110.296 122.37 110.112 123.058 109.744C123.746 109.376 124.298 108.824 124.714 108.088C125.146 107.352 125.362 106.456 125.362 105.4C125.362 104.344 125.154 103.448 124.738 102.712C124.322 101.976 123.778 101.432 123.106 101.08C122.434 100.712 121.706 100.528 120.922 100.528C120.122 100.528 119.386 100.712 118.714 101.08C118.058 101.432 117.53 101.976 117.13 102.712C116.73 103.448 116.53 104.344 116.53 105.4C116.53 106.472 116.722 107.376 117.106 108.112C117.506 108.848 118.034 109.4 118.69 109.768C119.346 110.12 120.066 110.296 120.85 110.296ZM129.649 105.376C129.649 104.032 129.921 102.856 130.465 101.848C131.009 100.824 131.753 100.032 132.697 99.472C133.657 98.912 134.721 98.632 135.889 98.632C137.041 98.632 138.041 98.88 138.889 99.376C139.737 99.872 140.369 100.496 140.785 101.248V98.848H142.993V112H140.785V109.552C140.353 110.32 139.705 110.96 138.841 111.472C137.993 111.968 137.001 112.216 135.865 112.216C134.697 112.216 133.641 111.928 132.697 111.352C131.753 110.776 131.009 109.968 130.465 108.928C129.921 107.888 129.649 106.704 129.649 105.376ZM140.785 105.4C140.785 104.408 140.585 103.544 140.185 102.808C139.785 102.072 139.241 101.512 138.553 101.128C137.881 100.728 137.137 100.528 136.321 100.528C135.505 100.528 134.761 100.72 134.089 101.104C133.417 101.488 132.881 102.048 132.481 102.784C132.081 103.52 131.881 104.384 131.881 105.376C131.881 106.384 132.081 107.264 132.481 108.016C132.881 108.752 133.417 109.32 134.089 109.72C134.761 110.104 135.505 110.296 136.321 110.296C137.137 110.296 137.881 110.104 138.553 109.72C139.241 109.32 139.785 108.752 140.185 108.016C140.585 107.264 140.785 106.392 140.785 105.4ZM145.868 105.376C145.868 104.032 146.14 102.856 146.684 101.848C147.228 100.824 147.972 100.032 148.916 99.472C149.876 98.912 150.948 98.632 152.132 98.632C153.156 98.632 154.108 98.872 154.988 99.352C155.868 99.816 156.54 100.432 157.004 101.2V94.24H159.212V112H157.004V109.528C156.572 110.312 155.932 110.96 155.084 111.472C154.236 111.968 153.244 112.216 152.108 112.216C150.94 112.216 149.876 111.928 148.916 111.352C147.972 110.776 147.228 109.968 146.684 108.928C146.14 107.888 145.868 106.704 145.868 105.376ZM157.004 105.4C157.004 104.408 156.804 103.544 156.404 102.808C156.004 102.072 155.46 101.512 154.772 101.128C154.1 100.728 153.356 100.528 152.54 100.528C151.724 100.528 150.98 100.72 150.308 101.104C149.636 101.488 149.1 102.048 148.7 102.784C148.3 103.52 148.1 104.384 148.1 105.376C148.1 106.384 148.3 107.264 148.7 108.016C149.1 108.752 149.636 109.32 150.308 109.72C150.98 110.104 151.724 110.296 152.54 110.296C153.356 110.296 154.1 110.104 154.772 109.72C155.46 109.32 156.004 108.752 156.404 108.016C156.804 107.264 157.004 106.392 157.004 105.4ZM180.485 100.168C180.485 101.56 180.005 102.72 179.045 103.648C178.101 104.56 176.653 105.016 174.701 105.016H171.485V112H169.301V95.272H174.701C176.589 95.272 178.021 95.728 178.997 96.64C179.989 97.552 180.485 98.728 180.485 100.168ZM174.701 103.216C175.917 103.216 176.813 102.952 177.389 102.424C177.965 101.896 178.253 101.144 178.253 100.168C178.253 98.104 177.069 97.072 174.701 97.072H171.485V103.216H174.701ZM189.728 98.608C190.72 98.608 191.616 98.824 192.416 99.256C193.216 99.672 193.84 100.304 194.288 101.152C194.752 102 194.984 103.032 194.984 104.248V112H192.824V104.56C192.824 103.248 192.496 102.248 191.84 101.56C191.184 100.856 190.288 100.504 189.152 100.504C188 100.504 187.08 100.864 186.392 101.584C185.72 102.304 185.384 103.352 185.384 104.728V112H183.2V94.24H185.384V100.72C185.816 100.048 186.408 99.528 187.16 99.16C187.928 98.792 188.784 98.608 189.728 98.608ZM197.735 105.376C197.735 104.032 198.007 102.856 198.551 101.848C199.095 100.824 199.839 100.032 200.783 99.472C201.743 98.912 202.807 98.632 203.975 98.632C205.127 98.632 206.127 98.88 206.975 99.376C207.823 99.872 208.455 100.496 208.871 101.248V98.848H211.079V112H208.871V109.552C208.439 110.32 207.791 110.96 206.927 111.472C206.079 111.968 205.087 112.216 203.951 112.216C202.783 112.216 201.727 111.928 200.783 111.352C199.839 110.776 199.095 109.968 198.551 108.928C198.007 107.888 197.735 106.704 197.735 105.376ZM208.871 105.4C208.871 104.408 208.671 103.544 208.271 102.808C207.871 102.072 207.327 101.512 206.639 101.128C205.967 100.728 205.223 100.528 204.407 100.528C203.591 100.528 202.847 100.72 202.175 101.104C201.503 101.488 200.967 102.048 200.567 102.784C200.167 103.52 199.967 104.384 199.967 105.376C199.967 106.384 200.167 107.264 200.567 108.016C200.967 108.752 201.503 109.32 202.175 109.72C202.847 110.104 203.591 110.296 204.407 110.296C205.223 110.296 205.967 110.104 206.639 109.72C207.327 109.32 207.871 108.752 208.271 108.016C208.671 107.264 208.871 106.392 208.871 105.4ZM221.178 98.608C222.778 98.608 224.074 99.096 225.066 100.072C226.058 101.032 226.554 102.424 226.554 104.248V112H224.394V104.56C224.394 103.248 224.066 102.248 223.41 101.56C222.754 100.856 221.858 100.504 220.722 100.504C219.57 100.504 218.65 100.864 217.962 101.584C217.29 102.304 216.954 103.352 216.954 104.728V112H214.77V98.848H216.954V100.72C217.386 100.048 217.97 99.528 218.706 99.16C219.458 98.792 220.282 98.608 221.178 98.608ZM232.785 100.648V108.4C232.785 109.04 232.921 109.496 233.193 109.768C233.465 110.024 233.937 110.152 234.609 110.152H236.217V112H234.249C233.033 112 232.121 111.72 231.513 111.16C230.905 110.6 230.601 109.68 230.601 108.4V100.648H228.897V98.848H230.601V95.536H232.785V98.848H236.217V100.648H232.785ZM244.6 112.216C243.368 112.216 242.248 111.936 241.24 111.376C240.248 110.816 239.464 110.024 238.888 109C238.328 107.96 238.048 106.76 238.048 105.4C238.048 104.056 238.336 102.872 238.912 101.848C239.504 100.808 240.304 100.016 241.312 99.472C242.32 98.912 243.448 98.632 244.696 98.632C245.944 98.632 247.072 98.912 248.08 99.472C249.088 100.016 249.88 100.8 250.456 101.824C251.048 102.848 251.344 104.04 251.344 105.4C251.344 106.76 251.04 107.96 250.432 109C249.84 110.024 249.032 110.816 248.008 111.376C246.984 111.936 245.848 112.216 244.6 112.216ZM244.6 110.296C245.384 110.296 246.12 110.112 246.808 109.744C247.496 109.376 248.048 108.824 248.464 108.088C248.896 107.352 249.112 106.456 249.112 105.4C249.112 104.344 248.904 103.448 248.488 102.712C248.072 101.976 247.528 101.432 246.856 101.08C246.184 100.712 245.456 100.528 244.672 100.528C243.872 100.528 243.136 100.712 242.464 101.08C241.808 101.432 241.28 101.976 240.88 102.712C240.48 103.448 240.28 104.344 240.28 105.4C240.28 106.472 240.472 107.376 240.856 108.112C241.256 108.848 241.784 109.4 242.44 109.768C243.096 110.12 243.816 110.296 244.6 110.296ZM270.031 98.608C271.055 98.608 271.967 98.824 272.767 99.256C273.567 99.672 274.199 100.304 274.663 101.152C275.127 102 275.359 103.032 275.359 104.248V112H273.199V104.56C273.199 103.248 272.871 102.248 272.215 101.56C271.575 100.856 270.703 100.504 269.599 100.504C268.463 100.504 267.559 100.872 266.887 101.608C266.215 102.328 265.879 103.376 265.879 104.752V112H263.719V104.56C263.719 103.248 263.391 102.248 262.735 101.56C262.095 100.856 261.223 100.504 260.119 100.504C258.983 100.504 258.079 100.872 257.407 101.608C256.735 102.328 256.399 103.376 256.399 104.752V112H254.215V98.848H256.399V100.744C256.831 100.056 257.407 99.528 258.127 99.16C258.863 98.792 259.671 98.608 260.551 98.608C261.655 98.608 262.631 98.856 263.479 99.352C264.327 99.848 264.959 100.576 265.375 101.536C265.743 100.608 266.351 99.888 267.199 99.376C268.047 98.864 268.991 98.608 270.031 98.608ZM291.076 112.216C289.844 112.216 288.724 111.936 287.716 111.376C286.724 110.816 285.94 110.024 285.364 109C284.804 107.96 284.524 106.76 284.524 105.4C284.524 104.056 284.812 102.872 285.388 101.848C285.98 100.808 286.78 100.016 287.788 99.472C288.796 98.912 289.924 98.632 291.172 98.632C292.42 98.632 293.548 98.912 294.556 99.472C295.564 100.016 296.356 100.8 296.932 101.824C297.524 102.848 297.82 104.04 297.82 105.4C297.82 106.76 297.516 107.96 296.908 109C296.316 110.024 295.508 110.816 294.484 111.376C293.46 111.936 292.324 112.216 291.076 112.216ZM291.076 110.296C291.86 110.296 292.596 110.112 293.284 109.744C293.972 109.376 294.524 108.824 294.94 108.088C295.372 107.352 295.588 106.456 295.588 105.4C295.588 104.344 295.38 103.448 294.964 102.712C294.548 101.976 294.004 101.432 293.332 101.08C292.66 100.712 291.932 100.528 291.148 100.528C290.348 100.528 289.612 100.712 288.94 101.08C288.284 101.432 287.756 101.976 287.356 102.712C286.956 103.448 286.756 104.344 286.756 105.4C286.756 106.472 286.948 107.376 287.332 108.112C287.732 108.848 288.26 109.4 288.916 109.768C289.572 110.12 290.292 110.296 291.076 110.296ZM302.876 100.984C303.26 100.232 303.804 99.648 304.508 99.232C305.228 98.816 306.1 98.608 307.124 98.608V100.864H306.548C304.1 100.864 302.876 102.192 302.876 104.848V112H300.692V98.848H302.876V100.984ZM315.227 105.376C315.227 104.032 315.499 102.856 316.043 101.848C316.587 100.824 317.331 100.032 318.275 99.472C319.235 98.912 320.299 98.632 321.467 98.632C322.619 98.632 323.619 98.88 324.467 99.376C325.315 99.872 325.947 100.496 326.363 101.248V98.848H328.571V112H326.363V109.552C325.931 110.32 325.283 110.96 324.419 111.472C323.571 111.968 322.579 112.216 321.443 112.216C320.275 112.216 319.219 111.928 318.275 111.352C317.331 110.776 316.587 109.968 316.043 108.928C315.499 107.888 315.227 106.704 315.227 105.376ZM326.363 105.4C326.363 104.408 326.163 103.544 325.763 102.808C325.363 102.072 324.819 101.512 324.131 101.128C323.459 100.728 322.715 100.528 321.899 100.528C321.083 100.528 320.339 100.72 319.667 101.104C318.995 101.488 318.459 102.048 318.059 102.784C317.659 103.52 317.459 104.384 317.459 105.376C317.459 106.384 317.659 107.264 318.059 108.016C318.459 108.752 318.995 109.32 319.667 109.72C320.339 110.104 321.083 110.296 321.899 110.296C322.715 110.296 323.459 110.104 324.131 109.72C324.819 109.32 325.363 108.752 325.763 108.016C326.163 107.264 326.363 106.392 326.363 105.4ZM338.67 98.608C340.27 98.608 341.566 99.096 342.558 100.072C343.55 101.032 344.046 102.424 344.046 104.248V112H341.886V104.56C341.886 103.248 341.558 102.248 340.902 101.56C340.246 100.856 339.35 100.504 338.214 100.504C337.062 100.504 336.142 100.864 335.454 101.584C334.782 102.304 334.446 103.352 334.446 104.728V112H332.262V98.848H334.446V100.72C334.878 100.048 335.462 99.528 336.198 99.16C336.95 98.792 337.774 98.608 338.67 98.608ZM358.942 98.848L351.022 118.192H348.766L351.358 111.856L346.054 98.848H348.478L352.606 109.504L356.686 98.848H358.942ZM59.368 134.848L55.264 148H53.008L49.84 137.56L46.672 148H44.416L40.288 134.848H42.52L45.544 145.888L48.808 134.848H51.04L54.232 145.912L57.208 134.848H59.368ZM60.7195 141.376C60.7195 140.032 60.9915 138.856 61.5355 137.848C62.0795 136.824 62.8235 136.032 63.7675 135.472C64.7275 134.912 65.7915 134.632 66.9595 134.632C68.1115 134.632 69.1115 134.88 69.9595 135.376C70.8075 135.872 71.4395 136.496 71.8555 137.248V134.848H74.0635V148H71.8555V145.552C71.4235 146.32 70.7755 146.96 69.9115 147.472C69.0635 147.968 68.0715 148.216 66.9355 148.216C65.7675 148.216 64.7115 147.928 63.7675 147.352C62.8235 146.776 62.0795 145.968 61.5355 144.928C60.9915 143.888 60.7195 142.704 60.7195 141.376ZM71.8555 141.4C71.8555 140.408 71.6555 139.544 71.2555 138.808C70.8555 138.072 70.3115 137.512 69.6235 137.128C68.9515 136.728 68.2075 136.528 67.3915 136.528C66.5755 136.528 65.8315 136.72 65.1595 137.104C64.4875 137.488 63.9515 138.048 63.5515 138.784C63.1515 139.52 62.9515 140.384 62.9515 141.376C62.9515 142.384 63.1515 143.264 63.5515 144.016C63.9515 144.752 64.4875 145.32 65.1595 145.72C65.8315 146.104 66.5755 146.296 67.3915 146.296C68.2075 146.296 68.9515 146.104 69.6235 145.72C70.3115 145.32 70.8555 144.752 71.2555 144.016C71.6555 143.264 71.8555 142.392 71.8555 141.4ZM79.9383 130.24V148H77.7543V130.24H79.9383ZM85.8445 130.24V148H83.6605V130.24H85.8445ZM101.567 140.92C101.567 141.336 101.543 141.776 101.495 142.24H90.9828C91.0628 143.536 91.5028 144.552 92.3028 145.288C93.1188 146.008 94.1028 146.368 95.2548 146.368C96.1988 146.368 96.9828 146.152 97.6068 145.72C98.2468 145.272 98.6948 144.68 98.9508 143.944H101.303C100.951 145.208 100.247 146.24 99.1908 147.04C98.1348 147.824 96.8228 148.216 95.2548 148.216C94.0068 148.216 92.8868 147.936 91.8948 147.376C90.9188 146.816 90.1508 146.024 89.5908 145C89.0308 143.96 88.7508 142.76 88.7508 141.4C88.7508 140.04 89.0228 138.848 89.5668 137.824C90.1108 136.8 90.8708 136.016 91.8468 135.472C92.8388 134.912 93.9748 134.632 95.2548 134.632C96.5028 134.632 97.6068 134.904 98.5668 135.448C99.5268 135.992 100.263 136.744 100.775 137.704C101.303 138.648 101.567 139.72 101.567 140.92ZM99.3108 140.464C99.3108 139.632 99.1268 138.92 98.7588 138.328C98.3908 137.72 97.8868 137.264 97.2468 136.96C96.6228 136.64 95.9268 136.48 95.1588 136.48C94.0548 136.48 93.1108 136.832 92.3268 137.536C91.5588 138.24 91.1188 139.216 91.0068 140.464H99.3108ZM107.114 136.648V144.4C107.114 145.04 107.25 145.496 107.522 145.768C107.794 146.024 108.266 146.152 108.938 146.152H110.546V148H108.578C107.362 148 106.45 147.72 105.842 147.16C105.234 146.6 104.93 145.68 104.93 144.4V136.648H103.226V134.848H104.93V131.536H107.114V134.848H110.546V136.648H107.114ZM122.254 136.648V144.4C122.254 145.04 122.39 145.496 122.662 145.768C122.934 146.024 123.406 146.152 124.078 146.152H125.686V148H123.718C122.502 148 121.59 147.72 120.982 147.16C120.374 146.6 120.07 145.68 120.07 144.4V136.648H118.366V134.848H120.07V131.536H122.254V134.848H125.686V136.648H122.254ZM134.86 134.608C135.852 134.608 136.748 134.824 137.548 135.256C138.348 135.672 138.972 136.304 139.42 137.152C139.884 138 140.116 139.032 140.116 140.248V148H137.956V140.56C137.956 139.248 137.628 138.248 136.972 137.56C136.316 136.856 135.42 136.504 134.284 136.504C133.132 136.504 132.212 136.864 131.524 137.584C130.852 138.304 130.516 139.352 130.516 140.728V148H128.332V130.24H130.516V136.72C130.948 136.048 131.54 135.528 132.292 135.16C133.06 134.792 133.916 134.608 134.86 134.608ZM142.868 141.376C142.868 140.032 143.14 138.856 143.684 137.848C144.228 136.824 144.972 136.032 145.916 135.472C146.876 134.912 147.94 134.632 149.108 134.632C150.26 134.632 151.26 134.88 152.108 135.376C152.956 135.872 153.588 136.496 154.004 137.248V134.848H156.212V148H154.004V145.552C153.572 146.32 152.924 146.96 152.06 147.472C151.212 147.968 150.22 148.216 149.084 148.216C147.916 148.216 146.86 147.928 145.916 147.352C144.972 146.776 144.228 145.968 143.684 144.928C143.14 143.888 142.868 142.704 142.868 141.376ZM154.004 141.4C154.004 140.408 153.804 139.544 153.404 138.808C153.004 138.072 152.46 137.512 151.772 137.128C151.1 136.728 150.356 136.528 149.54 136.528C148.724 136.528 147.98 136.72 147.308 137.104C146.636 137.488 146.1 138.048 145.7 138.784C145.3 139.52 145.1 140.384 145.1 141.376C145.1 142.384 145.3 143.264 145.7 144.016C146.1 144.752 146.636 145.32 147.308 145.72C147.98 146.104 148.724 146.296 149.54 146.296C150.356 146.296 151.1 146.104 151.772 145.72C152.46 145.32 153.004 144.752 153.404 144.016C153.804 143.264 154.004 142.392 154.004 141.4ZM162.567 136.648V144.4C162.567 145.04 162.703 145.496 162.975 145.768C163.247 146.024 163.719 146.152 164.391 146.152H165.999V148H164.031C162.815 148 161.903 147.72 161.295 147.16C160.687 146.6 160.383 145.68 160.383 144.4V136.648H158.679V134.848H160.383V131.536H162.567V134.848H165.999V136.648H162.567ZM179.699 148.216C178.691 148.216 177.787 148.048 176.987 147.712C176.187 147.36 175.555 146.88 175.091 146.272C174.627 145.648 174.371 144.936 174.323 144.136H176.579C176.643 144.792 176.947 145.328 177.491 145.744C178.051 146.16 178.779 146.368 179.675 146.368C180.507 146.368 181.163 146.184 181.643 145.816C182.123 145.448 182.363 144.984 182.363 144.424C182.363 143.848 182.107 143.424 181.595 143.152C181.083 142.864 180.291 142.584 179.219 142.312C178.243 142.056 177.443 141.8 176.819 141.544C176.211 141.272 175.683 140.88 175.235 140.368C174.803 139.84 174.587 139.152 174.587 138.304C174.587 137.632 174.787 137.016 175.187 136.456C175.587 135.896 176.155 135.456 176.891 135.136C177.627 134.8 178.467 134.632 179.411 134.632C180.867 134.632 182.043 135 182.939 135.736C183.835 136.472 184.315 137.48 184.379 138.76H182.195C182.147 138.072 181.867 137.52 181.355 137.104C180.859 136.688 180.187 136.48 179.339 136.48C178.555 136.48 177.931 136.648 177.467 136.984C177.003 137.32 176.771 137.76 176.771 138.304C176.771 138.736 176.907 139.096 177.179 139.384C177.467 139.656 177.819 139.88 178.235 140.056C178.667 140.216 179.259 140.4 180.011 140.608C180.955 140.864 181.723 141.12 182.315 141.376C182.907 141.616 183.411 141.984 183.827 142.48C184.259 142.976 184.483 143.624 184.499 144.424C184.499 145.144 184.299 145.792 183.899 146.368C183.499 146.944 182.931 147.4 182.195 147.736C181.475 148.056 180.643 148.216 179.699 148.216ZM199.246 134.848V148H197.062V146.056C196.646 146.728 196.062 147.256 195.31 147.64C194.574 148.008 193.758 148.192 192.862 148.192C191.838 148.192 190.918 147.984 190.102 147.568C189.286 147.136 188.638 146.496 188.158 145.648C187.694 144.8 187.462 143.768 187.462 142.552V134.848H189.622V142.264C189.622 143.56 189.95 144.56 190.606 145.264C191.262 145.952 192.158 146.296 193.294 146.296C194.462 146.296 195.382 145.936 196.054 145.216C196.726 144.496 197.062 143.448 197.062 142.072V134.848H199.246ZM205.118 137.272C205.55 136.52 206.19 135.896 207.038 135.4C207.902 134.888 208.902 134.632 210.038 134.632C211.206 134.632 212.262 134.912 213.206 135.472C214.166 136.032 214.918 136.824 215.462 137.848C216.006 138.856 216.278 140.032 216.278 141.376C216.278 142.704 216.006 143.888 215.462 144.928C214.918 145.968 214.166 146.776 213.206 147.352C212.262 147.928 211.206 148.216 210.038 148.216C208.918 148.216 207.926 147.968 207.062 147.472C206.214 146.96 205.566 146.328 205.118 145.576V154.24H202.934V134.848H205.118V137.272ZM214.046 141.376C214.046 140.384 213.846 139.52 213.446 138.784C213.046 138.048 212.502 137.488 211.814 137.104C211.142 136.72 210.398 136.528 209.582 136.528C208.782 136.528 208.038 136.728 207.35 137.128C206.678 137.512 206.134 138.08 205.718 138.832C205.318 139.568 205.118 140.424 205.118 141.4C205.118 142.392 205.318 143.264 205.718 144.016C206.134 144.752 206.678 145.32 207.35 145.72C208.038 146.104 208.782 146.296 209.582 146.296C210.398 146.296 211.142 146.104 211.814 145.72C212.502 145.32 213.046 144.752 213.446 144.016C213.846 143.264 214.046 142.384 214.046 141.376ZM221.337 137.272C221.769 136.52 222.409 135.896 223.257 135.4C224.121 134.888 225.121 134.632 226.257 134.632C227.425 134.632 228.481 134.912 229.425 135.472C230.385 136.032 231.137 136.824 231.681 137.848C232.225 138.856 232.497 140.032 232.497 141.376C232.497 142.704 232.225 143.888 231.681 144.928C231.137 145.968 230.385 146.776 229.425 147.352C228.481 147.928 227.425 148.216 226.257 148.216C225.137 148.216 224.145 147.968 223.281 147.472C222.433 146.96 221.785 146.328 221.337 145.576V154.24H219.153V134.848H221.337V137.272ZM230.265 141.376C230.265 140.384 230.065 139.52 229.665 138.784C229.265 138.048 228.721 137.488 228.033 137.104C227.361 136.72 226.617 136.528 225.801 136.528C225.001 136.528 224.257 136.728 223.569 137.128C222.897 137.512 222.353 138.08 221.937 138.832C221.537 139.568 221.337 140.424 221.337 141.4C221.337 142.392 221.537 143.264 221.937 144.016C222.353 144.752 222.897 145.32 223.569 145.72C224.257 146.104 225.001 146.296 225.801 146.296C226.617 146.296 227.361 146.104 228.033 145.72C228.721 145.32 229.265 144.752 229.665 144.016C230.065 143.264 230.265 142.384 230.265 141.376ZM241.107 148.216C239.875 148.216 238.755 147.936 237.747 147.376C236.755 146.816 235.971 146.024 235.395 145C234.835 143.96 234.555 142.76 234.555 141.4C234.555 140.056 234.843 138.872 235.419 137.848C236.011 136.808 236.811 136.016 237.819 135.472C238.827 134.912 239.955 134.632 241.203 134.632C242.451 134.632 243.579 134.912 244.587 135.472C245.595 136.016 246.387 136.8 246.963 137.824C247.555 138.848 247.851 140.04 247.851 141.4C247.851 142.76 247.547 143.96 246.939 145C246.347 146.024 245.539 146.816 244.515 147.376C243.491 147.936 242.355 148.216 241.107 148.216ZM241.107 146.296C241.891 146.296 242.627 146.112 243.315 145.744C244.003 145.376 244.555 144.824 244.971 144.088C245.403 143.352 245.619 142.456 245.619 141.4C245.619 140.344 245.411 139.448 244.995 138.712C244.579 137.976 244.035 137.432 243.363 137.08C242.691 136.712 241.963 136.528 241.179 136.528C240.379 136.528 239.643 136.712 238.971 137.08C238.315 137.432 237.787 137.976 237.387 138.712C236.987 139.448 236.787 140.344 236.787 141.4C236.787 142.472 236.979 143.376 237.363 144.112C237.763 144.848 238.291 145.4 238.947 145.768C239.603 146.12 240.323 146.296 241.107 146.296ZM252.907 136.984C253.291 136.232 253.835 135.648 254.539 135.232C255.259 134.816 256.131 134.608 257.155 134.608V136.864H256.579C254.131 136.864 252.907 138.192 252.907 140.848V148H250.723V134.848H252.907V136.984ZM262.34 136.648V144.4C262.34 145.04 262.476 145.496 262.748 145.768C263.02 146.024 263.492 146.152 264.164 146.152H265.772V148H263.804C262.588 148 261.676 147.72 261.068 147.16C260.46 146.6 260.156 145.68 260.156 144.4V136.648H258.452V134.848H260.156V131.536H262.34V134.848H265.772V136.648H262.34ZM273.074 148.216C272.066 148.216 271.162 148.048 270.362 147.712C269.562 147.36 268.93 146.88 268.466 146.272C268.002 145.648 267.746 144.936 267.698 144.136H269.954C270.018 144.792 270.322 145.328 270.866 145.744C271.426 146.16 272.154 146.368 273.05 146.368C273.882 146.368 274.538 146.184 275.018 145.816C275.498 145.448 275.738 144.984 275.738 144.424C275.738 143.848 275.482 143.424 274.97 143.152C274.458 142.864 273.666 142.584 272.594 142.312C271.618 142.056 270.818 141.8 270.194 141.544C269.586 141.272 269.058 140.88 268.61 140.368C268.178 139.84 267.962 139.152 267.962 138.304C267.962 137.632 268.162 137.016 268.562 136.456C268.962 135.896 269.53 135.456 270.266 135.136C271.002 134.8 271.842 134.632 272.786 134.632C274.242 134.632 275.418 135 276.314 135.736C277.21 136.472 277.69 137.48 277.754 138.76H275.57C275.522 138.072 275.242 137.52 274.73 137.104C274.234 136.688 273.562 136.48 272.714 136.48C271.93 136.48 271.306 136.648 270.842 136.984C270.378 137.32 270.146 137.76 270.146 138.304C270.146 138.736 270.282 139.096 270.554 139.384C270.842 139.656 271.194 139.88 271.61 140.056C272.042 140.216 272.634 140.4 273.386 140.608C274.33 140.864 275.098 141.12 275.69 141.376C276.282 141.616 276.786 141.984 277.202 142.48C277.634 142.976 277.858 143.624 277.874 144.424C277.874 145.144 277.674 145.792 277.274 146.368C276.874 146.944 276.306 147.4 275.57 147.736C274.85 148.056 274.018 148.216 273.074 148.216ZM292.66 148.168C291.556 148.168 290.564 147.976 289.684 147.592C288.82 147.192 288.14 146.648 287.644 145.96C287.148 145.256 286.892 144.448 286.876 143.536H289.204C289.284 144.32 289.604 144.984 290.164 145.528C290.74 146.056 291.572 146.32 292.66 146.32C293.7 146.32 294.516 146.064 295.108 145.552C295.716 145.024 296.02 144.352 296.02 143.536C296.02 142.896 295.844 142.376 295.492 141.976C295.14 141.576 294.7 141.272 294.172 141.064C293.644 140.856 292.932 140.632 292.036 140.392C290.932 140.104 290.044 139.816 289.372 139.528C288.716 139.24 288.148 138.792 287.668 138.184C287.204 137.56 286.972 136.728 286.972 135.688C286.972 134.776 287.204 133.968 287.668 133.264C288.132 132.56 288.78 132.016 289.612 131.632C290.46 131.248 291.428 131.056 292.516 131.056C294.084 131.056 295.364 131.448 296.356 132.232C297.364 133.016 297.932 134.056 298.06 135.352H295.66C295.58 134.712 295.244 134.152 294.652 133.672C294.06 133.176 293.276 132.928 292.3 132.928C291.388 132.928 290.644 133.168 290.068 133.648C289.492 134.112 289.204 134.768 289.204 135.616C289.204 136.224 289.372 136.72 289.708 137.104C290.06 137.488 290.484 137.784 290.98 137.992C291.492 138.184 292.204 138.408 293.116 138.664C294.22 138.968 295.108 139.272 295.78 139.576C296.452 139.864 297.028 140.32 297.508 140.944C297.988 141.552 298.228 142.384 298.228 143.44C298.228 144.256 298.012 145.024 297.58 145.744C297.148 146.464 296.508 147.048 295.66 147.496C294.812 147.944 293.812 148.168 292.66 148.168ZM309.026 148.168C307.474 148.168 306.058 147.808 304.778 147.088C303.498 146.352 302.482 145.336 301.73 144.04C300.994 142.728 300.626 141.256 300.626 139.624C300.626 137.992 300.994 136.528 301.73 135.232C302.482 133.92 303.498 132.904 304.778 132.184C306.058 131.448 307.474 131.08 309.026 131.08C310.594 131.08 312.018 131.448 313.298 132.184C314.578 132.904 315.586 133.912 316.322 135.208C317.058 136.504 317.426 137.976 317.426 139.624C317.426 141.272 317.058 142.744 316.322 144.04C315.586 145.336 314.578 146.352 313.298 147.088C312.018 147.808 310.594 148.168 309.026 148.168ZM309.026 146.272C310.194 146.272 311.242 146 312.17 145.456C313.114 144.912 313.85 144.136 314.378 143.128C314.922 142.12 315.194 140.952 315.194 139.624C315.194 138.28 314.922 137.112 314.378 136.12C313.85 135.112 313.122 134.336 312.194 133.792C311.266 133.248 310.21 132.976 309.026 132.976C307.842 132.976 306.786 133.248 305.858 133.792C304.93 134.336 304.194 135.112 303.65 136.12C303.122 137.112 302.858 138.28 302.858 139.624C302.858 140.952 303.122 142.12 303.65 143.128C304.194 144.136 304.93 144.912 305.858 145.456C306.802 146 307.858 146.272 309.026 146.272ZM322.493 146.224H328.349V148H320.309V131.272H322.493V146.224ZM331.364 148.144C330.948 148.144 330.596 148 330.308 147.712C330.02 147.424 329.876 147.072 329.876 146.656C329.876 146.24 330.02 145.888 330.308 145.6C330.596 145.312 330.948 145.168 331.364 145.168C331.764 145.168 332.1 145.312 332.372 145.6C332.66 145.888 332.804 146.24 332.804 146.656C332.804 147.072 332.66 147.424 332.372 147.712C332.1 148 331.764 148.144 331.364 148.144Z" fill="#E5E5E5"/>
</g>
<defs>
<filter id="filter0_d_52_4422" x="0" y="0" width="436" height="253" filterUnits="userSpaceOnUse" color-interpolation-filters="sRGB">
<feFlood flood-opacity="0" result="BackgroundImageFix"/>
<feColorMatrix in="SourceAlpha" type="matrix" values="0 0 0 0 0 0 0 0 0 0 0 0 0 0 0 0 0 0 127 0" result="hardAlpha"/>
<feOffset dy="4"/>
<feGaussianBlur stdDeviation="2"/>
<feComposite in2="hardAlpha" operator="out"/>
<feColorMatrix type="matrix" values="0 0 0 0 0 0 0 0 0 0 0 0 0 0 0 0 0 0 0.25 0"/>
<feBlend mode="normal" in2="BackgroundImageFix" result="effect1_dropShadow_52_4422"/>
<feBlend mode="normal" in="SourceGraphic" in2="effect1_dropShadow_52_4422" result="shape"/>
</filter>
</defs>
</svg>
