<svg width="432" height="253" viewBox="0 0 432 253" fill="none" xmlns="http://www.w3.org/2000/svg">
<g filter="url(#filter0_d_52_4423)">
<path d="M426 205C426 227.091 408.091 245 386 245H52C29.9086 245 12 227.091 12 205V84.122C12 74.8307 22.7087 68.5596 32 68.5596C54.0914 68.5596 72 50.5037 72 28.2305C72 16.5657 80.1281 0 91.7929 0H386C408.091 0 426 17.9086 426 40V205Z" fill="#1E1E1E"/>
<circle cx="34" cy="32" r="30" fill="#E0A529"/>
<path d="M26.1074 38.616C26.8327 38.04 27.1634 37.7733 27.0994 37.816C29.19 36.088 30.8327 34.6693 32.0274 33.56C33.2434 32.4507 34.2674 31.288 35.0994 30.072C35.9314 28.856 36.3474 27.672 36.3474 26.52C36.3474 25.6453 36.1447 24.9627 35.7394 24.472C35.334 23.9813 34.726 23.736 33.9154 23.736C33.1047 23.736 32.4647 24.0453 31.9954 24.664C31.5474 25.2613 31.3234 26.1147 31.3234 27.224H26.0434C26.086 25.4107 26.47 23.896 27.1954 22.68C27.942 21.464 28.9127 20.568 30.1074 19.992C31.3234 19.416 32.6674 19.128 34.1394 19.128C36.678 19.128 38.5874 19.7787 39.8674 21.08C41.1687 22.3813 41.8194 24.0773 41.8194 26.168C41.8194 28.4507 41.0407 30.5733 39.4834 32.536C37.926 34.4773 35.942 36.376 33.5314 38.232H42.1714V42.68H26.1074V38.616Z" fill="#E5E5E5"/>
<path d="M115.717 24.536V28.92H106.565V33.656H113.413V37.912H106.565V47H101.093V24.536H115.717ZM136.225 29.144V47H130.753V44.568C130.199 45.3573 129.441 45.9973 128.481 46.488C127.543 46.9573 126.497 47.192 125.345 47.192C123.98 47.192 122.775 46.8933 121.729 46.296C120.684 45.6773 119.873 44.792 119.297 43.64C118.721 42.488 118.433 41.1333 118.433 39.576V29.144H123.873V38.84C123.873 40.0347 124.183 40.9627 124.801 41.624C125.42 42.2853 126.252 42.616 127.297 42.616C128.364 42.616 129.207 42.2853 129.825 41.624C130.444 40.9627 130.753 40.0347 130.753 38.84V29.144H136.225ZM151.036 28.952C153.127 28.952 154.791 29.6347 156.028 31C157.287 32.344 157.916 34.2 157.916 36.568V47H152.476V37.304C152.476 36.1093 152.167 35.1813 151.548 34.52C150.929 33.8587 150.097 33.528 149.052 33.528C148.007 33.528 147.175 33.8587 146.556 34.52C145.937 35.1813 145.628 36.1093 145.628 37.304V47H140.156V29.144H145.628V31.512C146.183 30.7227 146.929 30.104 147.868 29.656C148.807 29.1867 149.863 28.952 151.036 28.952ZM160.63 38.04C160.63 36.2053 160.972 34.5947 161.654 33.208C162.358 31.8213 163.308 30.7547 164.502 30.008C165.697 29.2613 167.03 28.888 168.502 28.888C169.676 28.888 170.742 29.1333 171.702 29.624C172.684 30.1147 173.452 30.776 174.006 31.608V23.32H179.478V47H174.006V44.44C173.494 45.2933 172.758 45.976 171.798 46.488C170.86 47 169.761 47.256 168.502 47.256C167.03 47.256 165.697 46.8827 164.502 46.136C163.308 45.368 162.358 44.2907 161.654 42.904C160.972 41.496 160.63 39.8747 160.63 38.04ZM174.006 38.072C174.006 36.7067 173.622 35.6293 172.854 34.84C172.108 34.0507 171.19 33.656 170.102 33.656C169.014 33.656 168.086 34.0507 167.318 34.84C166.572 35.608 166.198 36.6747 166.198 38.04C166.198 39.4053 166.572 40.4933 167.318 41.304C168.086 42.0933 169.014 42.488 170.102 42.488C171.19 42.488 172.108 42.0933 172.854 41.304C173.622 40.5147 174.006 39.4373 174.006 38.072ZM208.458 29.144L197.258 55.48H191.37L195.466 46.392L188.202 29.144H194.314L198.442 40.312L202.538 29.144H208.458ZM218.565 47.256C216.816 47.256 215.237 46.8827 213.829 46.136C212.442 45.3893 211.344 44.3227 210.533 42.936C209.744 41.5493 209.349 39.928 209.349 38.072C209.349 36.2373 209.754 34.6267 210.565 33.24C211.376 31.832 212.485 30.7547 213.893 30.008C215.301 29.2613 216.88 28.888 218.629 28.888C220.378 28.888 221.957 29.2613 223.365 30.008C224.773 30.7547 225.882 31.832 226.693 33.24C227.504 34.6267 227.909 36.2373 227.909 38.072C227.909 39.9067 227.493 41.528 226.661 42.936C225.85 44.3227 224.73 45.3893 223.301 46.136C221.893 46.8827 220.314 47.256 218.565 47.256ZM218.565 42.52C219.61 42.52 220.496 42.136 221.221 41.368C221.968 40.6 222.341 39.5013 222.341 38.072C222.341 36.6427 221.978 35.544 221.253 34.776C220.549 34.008 219.674 33.624 218.629 33.624C217.562 33.624 216.677 34.008 215.973 34.776C215.269 35.5227 214.917 36.6213 214.917 38.072C214.917 39.5013 215.258 40.6 215.941 41.368C216.645 42.136 217.52 42.52 218.565 42.52ZM248.444 29.144V47H242.972V44.568C242.417 45.3573 241.66 45.9973 240.7 46.488C239.761 46.9573 238.716 47.192 237.564 47.192C236.199 47.192 234.993 46.8933 233.948 46.296C232.903 45.6773 232.092 44.792 231.516 43.64C230.94 42.488 230.652 41.1333 230.652 39.576V29.144H236.092V38.84C236.092 40.0347 236.401 40.9627 237.02 41.624C237.639 42.2853 238.471 42.616 239.516 42.616C240.583 42.616 241.425 42.2853 242.044 41.624C242.663 40.9627 242.972 40.0347 242.972 38.84V29.144H248.444ZM257.847 32.12C258.487 31.1387 259.287 30.3707 260.247 29.816C261.207 29.24 262.273 28.952 263.447 28.952V34.744H261.943C260.577 34.744 259.553 35.0427 258.871 35.64C258.188 36.216 257.847 37.24 257.847 38.712V47H252.375V29.144H257.847V32.12ZM298.475 29.144L293.643 47H287.595L284.779 35.416L281.867 47H275.851L270.987 29.144H276.459L278.987 41.912L281.995 29.144H287.787L290.827 41.848L293.323 29.144H298.475ZM299.474 38.04C299.474 36.2053 299.815 34.5947 300.498 33.208C301.202 31.8213 302.151 30.7547 303.346 30.008C304.541 29.2613 305.874 28.888 307.346 28.888C308.605 28.888 309.703 29.144 310.642 29.656C311.602 30.168 312.338 30.84 312.85 31.672V29.144H318.322V47H312.85V44.472C312.317 45.304 311.57 45.976 310.61 46.488C309.671 47 308.573 47.256 307.314 47.256C305.863 47.256 304.541 46.8827 303.346 46.136C302.151 45.368 301.202 44.2907 300.498 42.904C299.815 41.496 299.474 39.8747 299.474 38.04ZM312.85 38.072C312.85 36.7067 312.466 35.6293 311.698 34.84C310.951 34.0507 310.034 33.656 308.946 33.656C307.858 33.656 306.93 34.0507 306.162 34.84C305.415 35.608 305.042 36.6747 305.042 38.04C305.042 39.4053 305.415 40.4933 306.162 41.304C306.93 42.0933 307.858 42.488 308.946 42.488C310.034 42.488 310.951 42.0933 311.698 41.304C312.466 40.5147 312.85 39.4373 312.85 38.072ZM327.753 23.32V47H322.281V23.32H327.753ZM337.19 23.32V47H331.718V23.32H337.19ZM357.988 37.784C357.988 38.296 357.956 38.8293 357.892 39.384H345.508C345.593 40.4933 345.945 41.3467 346.564 41.944C347.204 42.52 347.983 42.808 348.9 42.808C350.265 42.808 351.215 42.232 351.748 41.08H357.572C357.273 42.2533 356.729 43.3093 355.94 44.248C355.172 45.1867 354.201 45.9227 353.028 46.456C351.855 46.9893 350.543 47.256 349.092 47.256C347.343 47.256 345.785 46.8827 344.42 46.136C343.055 45.3893 341.988 44.3227 341.22 42.936C340.452 41.5493 340.068 39.928 340.068 38.072C340.068 36.216 340.441 34.5947 341.188 33.208C341.956 31.8213 343.023 30.7547 344.388 30.008C345.753 29.2613 347.321 28.888 349.092 28.888C350.82 28.888 352.356 29.2507 353.7 29.976C355.044 30.7013 356.089 31.736 356.836 33.08C357.604 34.424 357.988 35.992 357.988 37.784ZM352.388 36.344C352.388 35.4053 352.068 34.6587 351.428 34.104C350.788 33.5493 349.988 33.272 349.028 33.272C348.111 33.272 347.332 33.5387 346.692 34.072C346.073 34.6053 345.689 35.3627 345.54 36.344H352.388ZM370.827 42.36V47H368.043C366.059 47 364.512 46.52 363.403 45.56C362.293 44.5787 361.739 42.9893 361.739 40.792V33.688H359.563V29.144H361.739V24.792H367.211V29.144H370.795V33.688H367.211V40.856C367.211 41.3893 367.339 41.7733 367.595 42.008C367.851 42.2427 368.277 42.36 368.875 42.36H370.827Z" fill="#E5E5E5"/>
<path d="M52.144 95.272V97.048H47.584V112H45.4V97.048H40.816V95.272H52.144ZM57.0164 100.984C57.4004 100.232 57.9444 99.648 58.6484 99.232C59.3684 98.816 60.2404 98.608 61.2644 98.608V100.864H60.6884C58.2404 100.864 57.0164 102.192 57.0164 104.848V112H54.8324V98.848H57.0164V100.984ZM62.9695 105.376C62.9695 104.032 63.2415 102.856 63.7855 101.848C64.3295 100.824 65.0735 100.032 66.0175 99.472C66.9775 98.912 68.0415 98.632 69.2095 98.632C70.3615 98.632 71.3615 98.88 72.2095 99.376C73.0575 99.872 73.6895 100.496 74.1055 101.248V98.848H76.3135V112H74.1055V109.552C73.6735 110.32 73.0255 110.96 72.1615 111.472C71.3135 111.968 70.3215 112.216 69.1855 112.216C68.0175 112.216 66.9615 111.928 66.0175 111.352C65.0735 110.776 64.3295 109.968 63.7855 108.928C63.2415 107.888 62.9695 106.704 62.9695 105.376ZM74.1055 105.4C74.1055 104.408 73.9055 103.544 73.5055 102.808C73.1055 102.072 72.5615 101.512 71.8735 101.128C71.2015 100.728 70.4575 100.528 69.6415 100.528C68.8255 100.528 68.0815 100.72 67.4095 101.104C66.7375 101.488 66.2015 102.048 65.8015 102.784C65.4015 103.52 65.2015 104.384 65.2015 105.376C65.2015 106.384 65.4015 107.264 65.8015 108.016C66.2015 108.752 66.7375 109.32 67.4095 109.72C68.0815 110.104 68.8255 110.296 69.6415 110.296C70.4575 110.296 71.2015 110.104 71.8735 109.72C72.5615 109.32 73.1055 108.752 73.5055 108.016C73.9055 107.264 74.1055 106.392 74.1055 105.4ZM86.4123 98.608C88.0123 98.608 89.3083 99.096 90.3003 100.072C91.2923 101.032 91.7883 102.424 91.7883 104.248V112H89.6283V104.56C89.6283 103.248 89.3003 102.248 88.6443 101.56C87.9883 100.856 87.0923 100.504 85.9563 100.504C84.8043 100.504 83.8843 100.864 83.1963 101.584C82.5243 102.304 82.1883 103.352 82.1883 104.728V112H80.0043V98.848H82.1883V100.72C82.6203 100.048 83.2043 99.528 83.9403 99.16C84.6923 98.792 85.5163 98.608 86.4123 98.608ZM100.012 112.216C99.0038 112.216 98.0998 112.048 97.2998 111.712C96.4998 111.36 95.8678 110.88 95.4038 110.272C94.9398 109.648 94.6838 108.936 94.6358 108.136H96.8918C96.9558 108.792 97.2598 109.328 97.8038 109.744C98.3638 110.16 99.0918 110.368 99.9878 110.368C100.82 110.368 101.476 110.184 101.956 109.816C102.436 109.448 102.676 108.984 102.676 108.424C102.676 107.848 102.42 107.424 101.908 107.152C101.396 106.864 100.604 106.584 99.5318 106.312C98.5558 106.056 97.7558 105.8 97.1318 105.544C96.5238 105.272 95.9958 104.88 95.5478 104.368C95.1158 103.84 94.8998 103.152 94.8998 102.304C94.8998 101.632 95.0998 101.016 95.4998 100.456C95.8998 99.896 96.4678 99.456 97.2038 99.136C97.9398 98.8 98.7798 98.632 99.7238 98.632C101.18 98.632 102.356 99 103.252 99.736C104.148 100.472 104.628 101.48 104.692 102.76H102.508C102.46 102.072 102.18 101.52 101.668 101.104C101.172 100.688 100.5 100.48 99.6518 100.48C98.8678 100.48 98.2438 100.648 97.7798 100.984C97.3158 101.32 97.0838 101.76 97.0838 102.304C97.0838 102.736 97.2198 103.096 97.4918 103.384C97.7798 103.656 98.1318 103.88 98.5478 104.056C98.9798 104.216 99.5718 104.4 100.324 104.608C101.268 104.864 102.036 105.12 102.628 105.376C103.22 105.616 103.724 105.984 104.14 106.48C104.572 106.976 104.796 107.624 104.812 108.424C104.812 109.144 104.612 109.792 104.212 110.368C103.812 110.944 103.244 111.4 102.508 111.736C101.788 112.056 100.956 112.216 100.012 112.216ZM113.247 100.648H110.487V112H108.303V100.648H106.599V98.848H108.303V97.912C108.303 96.44 108.679 95.368 109.431 94.696C110.199 94.008 111.423 93.664 113.103 93.664V95.488C112.143 95.488 111.463 95.68 111.063 96.064C110.679 96.432 110.487 97.048 110.487 97.912V98.848H113.247V100.648ZM127.793 104.92C127.793 105.336 127.769 105.776 127.721 106.24H117.209C117.289 107.536 117.729 108.552 118.529 109.288C119.345 110.008 120.329 110.368 121.481 110.368C122.425 110.368 123.209 110.152 123.833 109.72C124.473 109.272 124.921 108.68 125.177 107.944H127.529C127.177 109.208 126.473 110.24 125.417 111.04C124.361 111.824 123.049 112.216 121.481 112.216C120.233 112.216 119.113 111.936 118.121 111.376C117.145 110.816 116.377 110.024 115.817 109C115.257 107.96 114.977 106.76 114.977 105.4C114.977 104.04 115.249 102.848 115.793 101.824C116.337 100.8 117.097 100.016 118.073 99.472C119.065 98.912 120.201 98.632 121.481 98.632C122.729 98.632 123.833 98.904 124.793 99.448C125.753 99.992 126.489 100.744 127.001 101.704C127.529 102.648 127.793 103.72 127.793 104.92ZM125.537 104.464C125.537 103.632 125.353 102.92 124.985 102.328C124.617 101.72 124.113 101.264 123.473 100.96C122.849 100.64 122.153 100.48 121.385 100.48C120.281 100.48 119.337 100.832 118.553 101.536C117.785 102.24 117.345 103.216 117.233 104.464H125.537ZM132.86 100.984C133.244 100.232 133.788 99.648 134.492 99.232C135.212 98.816 136.084 98.608 137.108 98.608V100.864H136.532C134.084 100.864 132.86 102.192 132.86 104.848V112H130.676V98.848H132.86V100.984ZM151.332 112.168C150.228 112.168 149.236 111.976 148.356 111.592C147.492 111.192 146.812 110.648 146.316 109.96C145.82 109.256 145.564 108.448 145.548 107.536H147.876C147.956 108.32 148.276 108.984 148.836 109.528C149.412 110.056 150.244 110.32 151.332 110.32C152.372 110.32 153.188 110.064 153.78 109.552C154.388 109.024 154.692 108.352 154.692 107.536C154.692 106.896 154.516 106.376 154.164 105.976C153.812 105.576 153.372 105.272 152.844 105.064C152.316 104.856 151.604 104.632 150.708 104.392C149.604 104.104 148.716 103.816 148.044 103.528C147.388 103.24 146.82 102.792 146.34 102.184C145.876 101.56 145.644 100.728 145.644 99.688C145.644 98.776 145.876 97.968 146.34 97.264C146.804 96.56 147.452 96.016 148.284 95.632C149.132 95.248 150.1 95.056 151.188 95.056C152.756 95.056 154.036 95.448 155.028 96.232C156.036 97.016 156.604 98.056 156.732 99.352H154.332C154.252 98.712 153.916 98.152 153.324 97.672C152.732 97.176 151.948 96.928 150.972 96.928C150.06 96.928 149.316 97.168 148.74 97.648C148.164 98.112 147.876 98.768 147.876 99.616C147.876 100.224 148.044 100.72 148.38 101.104C148.732 101.488 149.156 101.784 149.652 101.992C150.164 102.184 150.876 102.408 151.788 102.664C152.892 102.968 153.78 103.272 154.452 103.576C155.124 103.864 155.7 104.32 156.18 104.944C156.66 105.552 156.9 106.384 156.9 107.44C156.9 108.256 156.684 109.024 156.252 109.744C155.82 110.464 155.18 111.048 154.332 111.496C153.484 111.944 152.484 112.168 151.332 112.168ZM167.698 112.168C166.146 112.168 164.73 111.808 163.45 111.088C162.17 110.352 161.154 109.336 160.402 108.04C159.666 106.728 159.298 105.256 159.298 103.624C159.298 101.992 159.666 100.528 160.402 99.232C161.154 97.92 162.17 96.904 163.45 96.184C164.73 95.448 166.146 95.08 167.698 95.08C169.266 95.08 170.69 95.448 171.97 96.184C173.25 96.904 174.258 97.912 174.994 99.208C175.73 100.504 176.098 101.976 176.098 103.624C176.098 105.272 175.73 106.744 174.994 108.04C174.258 109.336 173.25 110.352 171.97 111.088C170.69 111.808 169.266 112.168 167.698 112.168ZM167.698 110.272C168.866 110.272 169.914 110 170.842 109.456C171.786 108.912 172.522 108.136 173.05 107.128C173.594 106.12 173.866 104.952 173.866 103.624C173.866 102.28 173.594 101.112 173.05 100.12C172.522 99.112 171.794 98.336 170.866 97.792C169.938 97.248 168.882 96.976 167.698 96.976C166.514 96.976 165.458 97.248 164.53 97.792C163.602 98.336 162.866 99.112 162.322 100.12C161.794 101.112 161.53 102.28 161.53 103.624C161.53 104.952 161.794 106.12 162.322 107.128C162.866 108.136 163.602 108.912 164.53 109.456C165.474 110 166.53 110.272 167.698 110.272ZM181.165 110.224H187.021V112H178.981V95.272H181.165V110.224ZM198.403 100.648V108.4C198.403 109.04 198.539 109.496 198.811 109.768C199.083 110.024 199.555 110.152 200.227 110.152H201.835V112H199.867C198.651 112 197.739 111.72 197.131 111.16C196.523 110.6 196.219 109.68 196.219 108.4V100.648H194.515V98.848H196.219V95.536H198.403V98.848H201.835V100.648H198.403ZM210.217 112.216C208.985 112.216 207.865 111.936 206.857 111.376C205.865 110.816 205.081 110.024 204.505 109C203.945 107.96 203.665 106.76 203.665 105.4C203.665 104.056 203.953 102.872 204.529 101.848C205.121 100.808 205.921 100.016 206.929 99.472C207.937 98.912 209.065 98.632 210.313 98.632C211.561 98.632 212.689 98.912 213.697 99.472C214.705 100.016 215.497 100.8 216.073 101.824C216.665 102.848 216.961 104.04 216.961 105.4C216.961 106.76 216.657 107.96 216.049 109C215.457 110.024 214.649 110.816 213.625 111.376C212.601 111.936 211.465 112.216 210.217 112.216ZM210.217 110.296C211.001 110.296 211.737 110.112 212.425 109.744C213.113 109.376 213.665 108.824 214.081 108.088C214.513 107.352 214.729 106.456 214.729 105.4C214.729 104.344 214.521 103.448 214.105 102.712C213.689 101.976 213.145 101.432 212.473 101.08C211.801 100.712 211.073 100.528 210.289 100.528C209.489 100.528 208.753 100.712 208.081 101.08C207.425 101.432 206.897 101.976 206.497 102.712C206.097 103.448 205.897 104.344 205.897 105.4C205.897 106.472 206.089 107.376 206.473 108.112C206.873 108.848 207.401 109.4 208.057 109.768C208.713 110.12 209.433 110.296 210.217 110.296ZM237.559 98.848L229.639 118.192H227.383L229.975 111.856L224.671 98.848H227.095L231.223 109.504L235.303 98.848H237.559ZM245.49 112.216C244.258 112.216 243.138 111.936 242.13 111.376C241.138 110.816 240.354 110.024 239.778 109C239.218 107.96 238.938 106.76 238.938 105.4C238.938 104.056 239.226 102.872 239.802 101.848C240.394 100.808 241.194 100.016 242.202 99.472C243.21 98.912 244.338 98.632 245.586 98.632C246.834 98.632 247.962 98.912 248.97 99.472C249.978 100.016 250.77 100.8 251.346 101.824C251.938 102.848 252.234 104.04 252.234 105.4C252.234 106.76 251.93 107.96 251.322 109C250.73 110.024 249.922 110.816 248.898 111.376C247.874 111.936 246.738 112.216 245.49 112.216ZM245.49 110.296C246.274 110.296 247.01 110.112 247.698 109.744C248.386 109.376 248.938 108.824 249.354 108.088C249.786 107.352 250.002 106.456 250.002 105.4C250.002 104.344 249.794 103.448 249.378 102.712C248.962 101.976 248.418 101.432 247.746 101.08C247.074 100.712 246.346 100.528 245.562 100.528C244.762 100.528 244.026 100.712 243.354 101.08C242.698 101.432 242.17 101.976 241.77 102.712C241.37 103.448 241.17 104.344 241.17 105.4C241.17 106.472 241.362 107.376 241.746 108.112C242.146 108.848 242.674 109.4 243.33 109.768C243.986 110.12 244.706 110.296 245.49 110.296ZM266.77 98.848V112H264.586V110.056C264.17 110.728 263.586 111.256 262.834 111.64C262.098 112.008 261.282 112.192 260.386 112.192C259.362 112.192 258.442 111.984 257.626 111.568C256.81 111.136 256.162 110.496 255.682 109.648C255.218 108.8 254.986 107.768 254.986 106.552V98.848H257.146V106.264C257.146 107.56 257.474 108.56 258.13 109.264C258.786 109.952 259.682 110.296 260.818 110.296C261.986 110.296 262.906 109.936 263.578 109.216C264.25 108.496 264.586 107.448 264.586 106.072V98.848H266.77ZM272.641 100.984C273.025 100.232 273.569 99.648 274.273 99.232C274.993 98.816 275.865 98.608 276.889 98.608V100.864H276.313C273.865 100.864 272.641 102.192 272.641 104.848V112H270.457V98.848H272.641V100.984ZM303.329 98.848L299.225 112H296.969L293.801 101.56L290.633 112H288.377L284.249 98.848H286.481L289.505 109.888L292.769 98.848H295.001L298.193 109.912L301.169 98.848H303.329ZM304.68 105.376C304.68 104.032 304.952 102.856 305.496 101.848C306.04 100.824 306.784 100.032 307.728 99.472C308.688 98.912 309.752 98.632 310.92 98.632C312.072 98.632 313.072 98.88 313.92 99.376C314.768 99.872 315.4 100.496 315.816 101.248V98.848H318.024V112H315.816V109.552C315.384 110.32 314.736 110.96 313.872 111.472C313.024 111.968 312.032 112.216 310.896 112.216C309.728 112.216 308.672 111.928 307.728 111.352C306.784 110.776 306.04 109.968 305.496 108.928C304.952 107.888 304.68 106.704 304.68 105.376ZM315.816 105.4C315.816 104.408 315.616 103.544 315.216 102.808C314.816 102.072 314.272 101.512 313.584 101.128C312.912 100.728 312.168 100.528 311.352 100.528C310.536 100.528 309.792 100.72 309.12 101.104C308.448 101.488 307.912 102.048 307.512 102.784C307.112 103.52 306.912 104.384 306.912 105.376C306.912 106.384 307.112 107.264 307.512 108.016C307.912 108.752 308.448 109.32 309.12 109.72C309.792 110.104 310.536 110.296 311.352 110.296C312.168 110.296 312.912 110.104 313.584 109.72C314.272 109.32 314.816 108.752 315.216 108.016C315.616 107.264 315.816 106.392 315.816 105.4ZM323.899 94.24V112H321.715V94.24H323.899ZM329.805 94.24V112H327.621V94.24H329.805ZM345.528 104.92C345.528 105.336 345.504 105.776 345.456 106.24H334.944C335.024 107.536 335.464 108.552 336.264 109.288C337.08 110.008 338.064 110.368 339.216 110.368C340.16 110.368 340.944 110.152 341.568 109.72C342.208 109.272 342.656 108.68 342.912 107.944H345.264C344.912 109.208 344.208 110.24 343.152 111.04C342.096 111.824 340.784 112.216 339.216 112.216C337.968 112.216 336.848 111.936 335.856 111.376C334.88 110.816 334.112 110.024 333.552 109C332.992 107.96 332.712 106.76 332.712 105.4C332.712 104.04 332.984 102.848 333.528 101.824C334.072 100.8 334.832 100.016 335.808 99.472C336.8 98.912 337.936 98.632 339.216 98.632C340.464 98.632 341.568 98.904 342.528 99.448C343.488 99.992 344.224 100.744 344.736 101.704C345.264 102.648 345.528 103.72 345.528 104.92ZM343.272 104.464C343.272 103.632 343.088 102.92 342.72 102.328C342.352 101.72 341.848 101.264 341.208 100.96C340.584 100.64 339.888 100.48 339.12 100.48C338.016 100.48 337.072 100.832 336.288 101.536C335.52 102.24 335.08 103.216 334.968 104.464H343.272ZM351.075 100.648V108.4C351.075 109.04 351.211 109.496 351.483 109.768C351.755 110.024 352.227 110.152 352.898 110.152H354.507V112H352.539C351.323 112 350.411 111.72 349.803 111.16C349.195 110.6 348.891 109.68 348.891 108.4V100.648H347.187V98.848H348.891V95.536H351.075V98.848H354.507V100.648H351.075ZM357.849 112.144C357.433 112.144 357.081 112 356.793 111.712C356.505 111.424 356.361 111.072 356.361 110.656C356.361 110.24 356.505 109.888 356.793 109.6C357.081 109.312 357.433 109.168 357.849 109.168C358.249 109.168 358.585 109.312 358.857 109.6C359.145 109.888 359.289 110.24 359.289 110.656C359.289 111.072 359.145 111.424 358.857 111.712C358.585 112 358.249 112.144 357.849 112.144Z" fill="#E5E5E5"/>
</g>
<defs>
<filter id="filter0_d_52_4423" x="0" y="0" width="436" height="253" filterUnits="userSpaceOnUse" color-interpolation-filters="sRGB">
<feFlood flood-opacity="0" result="BackgroundImageFix"/>
<feColorMatrix in="SourceAlpha" type="matrix" values="0 0 0 0 0 0 0 0 0 0 0 0 0 0 0 0 0 0 127 0" result="hardAlpha"/>
<feOffset dy="4"/>
<feGaussianBlur stdDeviation="2"/>
<feComposite in2="hardAlpha" operator="out"/>
<feColorMatrix type="matrix" values="0 0 0 0 0 0 0 0 0 0 0 0 0 0 0 0 0 0 0.25 0"/>
<feBlend mode="normal" in2="BackgroundImageFix" result="effect1_dropShadow_52_4423"/>
<feBlend mode="normal" in="SourceGraphic" in2="effect1_dropShadow_52_4423" result="shape"/>
</filter>
</defs>
</svg>
