<svg width="432" height="253" viewBox="0 0 432 253" fill="none" xmlns="http://www.w3.org/2000/svg">
<g filter="url(#filter0_d_52_4424)">
<path d="M426 205C426 227.091 408.091 245 386 245H52C29.9086 245 12 227.091 12 205V84.122C12 74.8307 22.7087 68.5596 32 68.5596C54.0914 68.5596 72 50.5037 72 28.2305C72 16.5657 80.1281 0 91.7929 0H386C408.091 0 426 17.9086 426 40V205Z" fill="#1E1E1E"/>
<circle cx="34" cy="32" r="30" fill="#E0A529"/>
<path d="M25.9445 26.232C26.0298 23.9493 26.7765 22.1893 28.1845 20.952C29.5925 19.7147 31.5018 19.096 33.9125 19.096C35.5125 19.096 36.8778 19.3733 38.0085 19.928C39.1605 20.4827 40.0245 21.24 40.6005 22.2C41.1978 23.16 41.4965 24.2373 41.4965 25.432C41.4965 26.84 41.1445 27.992 40.4405 28.888C39.7365 29.7627 38.9152 30.36 37.9765 30.68V30.808C39.1925 31.2133 40.1525 31.8853 40.8565 32.824C41.5605 33.7627 41.9125 34.968 41.9125 36.44C41.9125 37.7627 41.6032 38.936 40.9845 39.96C40.3872 40.9627 39.5018 41.752 38.3285 42.328C37.1765 42.904 35.8005 43.192 34.2005 43.192C31.6405 43.192 29.5925 42.5627 28.0565 41.304C26.5418 40.0453 25.7418 38.1467 25.6565 35.608H30.9685C30.9898 36.5467 31.2565 37.2933 31.7685 37.848C32.2805 38.3813 33.0272 38.648 34.0085 38.648C34.8405 38.648 35.4805 38.4133 35.9285 37.944C36.3978 37.4533 36.6325 36.8133 36.6325 36.024C36.6325 35 36.3018 34.264 35.6405 33.816C35.0005 33.3467 33.9658 33.112 32.5365 33.112H31.5125V28.664H32.5365C33.6245 28.664 34.4992 28.4827 35.1605 28.12C35.8432 27.736 36.1845 27.064 36.1845 26.104C36.1845 25.336 35.9712 24.7387 35.5445 24.312C35.1178 23.8853 34.5312 23.672 33.7845 23.672C32.9738 23.672 32.3658 23.9173 31.9605 24.408C31.5765 24.8987 31.3525 25.5067 31.2885 26.232H25.9445Z" fill="#E5E5E5"/>
<path d="M104.302 31.64C103.897 30.8933 103.31 30.328 102.542 29.944C101.796 29.5387 100.91 29.336 99.8863 29.336C98.1156 29.336 96.6969 29.9227 95.6302 31.096C94.5636 32.248 94.0303 33.7947 94.0303 35.736C94.0303 37.8053 94.5849 39.4267 95.6943 40.6C96.8249 41.752 98.3716 42.328 100.334 42.328C101.678 42.328 102.809 41.9867 103.726 41.304C104.665 40.6213 105.348 39.64 105.774 38.36H98.8303V34.328H110.734V39.416C110.329 40.7813 109.636 42.0507 108.654 43.224C107.694 44.3973 106.468 45.3467 104.974 46.072C103.481 46.7973 101.796 47.16 99.9183 47.16C97.6996 47.16 95.7156 46.68 93.9663 45.72C92.2383 44.7387 90.8836 43.384 89.9023 41.656C88.9423 39.928 88.4622 37.9547 88.4622 35.736C88.4622 33.5173 88.9423 31.544 89.9023 29.816C90.8836 28.0667 92.2383 26.712 93.9663 25.752C95.6943 24.7707 97.6676 24.28 99.8863 24.28C102.574 24.28 104.836 24.9307 106.67 26.232C108.526 27.5333 109.753 29.336 110.35 31.64H104.302ZM119.237 32.12C119.877 31.1387 120.677 30.3707 121.637 29.816C122.597 29.24 123.664 28.952 124.837 28.952V34.744H123.333C121.968 34.744 120.944 35.0427 120.261 35.64C119.579 36.216 119.237 37.24 119.237 38.712V47H113.765V29.144H119.237V32.12ZM126.365 38.04C126.365 36.2053 126.706 34.5947 127.389 33.208C128.093 31.8213 129.042 30.7547 130.237 30.008C131.431 29.2613 132.765 28.888 134.237 28.888C135.495 28.888 136.594 29.144 137.533 29.656C138.493 30.168 139.229 30.84 139.741 31.672V29.144H145.213V47H139.741V44.472C139.207 45.304 138.461 45.976 137.501 46.488C136.562 47 135.463 47.256 134.205 47.256C132.754 47.256 131.431 46.8827 130.237 46.136C129.042 45.368 128.093 44.2907 127.389 42.904C126.706 41.496 126.365 39.8747 126.365 38.04ZM139.741 38.072C139.741 36.7067 139.357 35.6293 138.589 34.84C137.842 34.0507 136.925 33.656 135.837 33.656C134.749 33.656 133.821 34.0507 133.053 34.84C132.306 35.608 131.933 36.6747 131.933 38.04C131.933 39.4053 132.306 40.4933 133.053 41.304C133.821 42.0933 134.749 42.488 135.837 42.488C136.925 42.488 137.842 42.0933 138.589 41.304C139.357 40.5147 139.741 39.4373 139.741 38.072ZM154.644 31.672C155.156 30.84 155.892 30.168 156.852 29.656C157.812 29.144 158.91 28.888 160.148 28.888C161.62 28.888 162.953 29.2613 164.148 30.008C165.342 30.7547 166.281 31.8213 166.964 33.208C167.668 34.5947 168.02 36.2053 168.02 38.04C168.02 39.8747 167.668 41.496 166.964 42.904C166.281 44.2907 165.342 45.368 164.148 46.136C162.953 46.8827 161.62 47.256 160.148 47.256C158.889 47.256 157.79 47.0107 156.852 46.52C155.913 46.008 155.177 45.336 154.644 44.504V47H149.172V23.32H154.644V31.672ZM162.452 38.04C162.452 36.6747 162.068 35.608 161.3 34.84C160.553 34.0507 159.625 33.656 158.516 33.656C157.428 33.656 156.5 34.0507 155.732 34.84C154.985 35.6293 154.612 36.7067 154.612 38.072C154.612 39.4373 154.985 40.5147 155.732 41.304C156.5 42.0933 157.428 42.488 158.516 42.488C159.604 42.488 160.532 42.0933 161.3 41.304C162.068 40.4933 162.452 39.4053 162.452 38.04ZM195.912 29.144L184.712 55.48H178.824L182.92 46.392L175.655 29.144H181.768L185.896 40.312L189.992 29.144H195.912ZM206.018 47.256C204.269 47.256 202.69 46.8827 201.282 46.136C199.896 45.3893 198.797 44.3227 197.986 42.936C197.197 41.5493 196.802 39.928 196.802 38.072C196.802 36.2373 197.208 34.6267 198.018 33.24C198.829 31.832 199.938 30.7547 201.346 30.008C202.754 29.2613 204.333 28.888 206.082 28.888C207.832 28.888 209.41 29.2613 210.818 30.008C212.226 30.7547 213.336 31.832 214.146 33.24C214.957 34.6267 215.362 36.2373 215.362 38.072C215.362 39.9067 214.946 41.528 214.114 42.936C213.304 44.3227 212.184 45.3893 210.754 46.136C209.346 46.8827 207.768 47.256 206.018 47.256ZM206.018 42.52C207.064 42.52 207.949 42.136 208.674 41.368C209.421 40.6 209.794 39.5013 209.794 38.072C209.794 36.6427 209.432 35.544 208.706 34.776C208.002 34.008 207.128 33.624 206.082 33.624C205.016 33.624 204.13 34.008 203.426 34.776C202.722 35.5227 202.37 36.6213 202.37 38.072C202.37 39.5013 202.712 40.6 203.394 41.368C204.098 42.136 204.973 42.52 206.018 42.52ZM235.897 29.144V47H230.425V44.568C229.871 45.3573 229.113 45.9973 228.153 46.488C227.215 46.9573 226.169 47.192 225.017 47.192C223.652 47.192 222.447 46.8933 221.401 46.296C220.356 45.6773 219.545 44.792 218.969 43.64C218.393 42.488 218.105 41.1333 218.105 39.576V29.144H223.545V38.84C223.545 40.0347 223.855 40.9627 224.473 41.624C225.092 42.2853 225.924 42.616 226.969 42.616C228.036 42.616 228.879 42.2853 229.497 41.624C230.116 40.9627 230.425 40.0347 230.425 38.84V29.144H235.897ZM245.3 32.12C245.94 31.1387 246.74 30.3707 247.7 29.816C248.66 29.24 249.726 28.952 250.9 28.952V34.744H249.396C248.03 34.744 247.006 35.0427 246.324 35.64C245.641 36.216 245.3 37.24 245.3 38.712V47H239.828V29.144H245.3V32.12ZM271.753 47L267.081 38.52H265.769V47H260.297V24.536H269.481C271.251 24.536 272.755 24.8453 273.993 25.464C275.251 26.0827 276.19 26.936 276.809 28.024C277.427 29.0907 277.737 30.2853 277.737 31.608C277.737 33.1013 277.31 34.4347 276.457 35.608C275.625 36.7813 274.387 37.6133 272.745 38.104L277.929 47H271.753ZM265.769 34.648H269.161C270.163 34.648 270.91 34.4027 271.401 33.912C271.913 33.4213 272.169 32.728 272.169 31.832C272.169 30.9787 271.913 30.3067 271.401 29.816C270.91 29.3253 270.163 29.08 269.161 29.08H265.769V34.648ZM280.084 38.04C280.084 36.2053 280.425 34.5947 281.108 33.208C281.812 31.8213 282.761 30.7547 283.956 30.008C285.15 29.2613 286.484 28.888 287.956 28.888C289.214 28.888 290.313 29.144 291.252 29.656C292.212 30.168 292.948 30.84 293.46 31.672V29.144H298.932V47H293.46V44.472C292.926 45.304 292.18 45.976 291.22 46.488C290.281 47 289.182 47.256 287.924 47.256C286.473 47.256 285.15 46.8827 283.956 46.136C282.761 45.368 281.812 44.2907 281.108 42.904C280.425 41.496 280.084 39.8747 280.084 38.04ZM293.46 38.072C293.46 36.7067 293.076 35.6293 292.308 34.84C291.561 34.0507 290.644 33.656 289.556 33.656C288.468 33.656 287.54 34.0507 286.772 34.84C286.025 35.608 285.652 36.6747 285.652 38.04C285.652 39.4053 286.025 40.4933 286.772 41.304C287.54 42.0933 288.468 42.488 289.556 42.488C290.644 42.488 291.561 42.0933 292.308 41.304C293.076 40.5147 293.46 39.4373 293.46 38.072ZM301.802 38.072C301.802 36.216 302.176 34.5947 302.922 33.208C303.69 31.8213 304.746 30.7547 306.09 30.008C307.456 29.2613 309.013 28.888 310.762 28.888C313.002 28.888 314.869 29.4747 316.362 30.648C317.877 31.8213 318.869 33.4747 319.338 35.608H313.514C313.024 34.2427 312.074 33.56 310.666 33.56C309.664 33.56 308.864 33.9547 308.266 34.744C307.669 35.512 307.37 36.6213 307.37 38.072C307.37 39.5227 307.669 40.6427 308.266 41.432C308.864 42.2 309.664 42.584 310.666 42.584C312.074 42.584 313.024 41.9013 313.514 40.536H319.338C318.869 42.6267 317.877 44.2693 316.362 45.464C314.848 46.6587 312.981 47.256 310.762 47.256C309.013 47.256 307.456 46.8827 306.09 46.136C304.746 45.3893 303.69 44.3227 302.922 42.936C302.176 41.5493 301.802 39.928 301.802 38.072ZM330.393 47.256C328.644 47.256 327.065 46.8827 325.657 46.136C324.271 45.3893 323.172 44.3227 322.361 42.936C321.572 41.5493 321.177 39.928 321.177 38.072C321.177 36.2373 321.583 34.6267 322.393 33.24C323.204 31.832 324.313 30.7547 325.721 30.008C327.129 29.2613 328.708 28.888 330.457 28.888C332.207 28.888 333.785 29.2613 335.193 30.008C336.601 30.7547 337.711 31.832 338.521 33.24C339.332 34.6267 339.737 36.2373 339.737 38.072C339.737 39.9067 339.321 41.528 338.489 42.936C337.679 44.3227 336.559 45.3893 335.129 46.136C333.721 46.8827 332.143 47.256 330.393 47.256ZM330.393 42.52C331.439 42.52 332.324 42.136 333.049 41.368C333.796 40.6 334.169 39.5013 334.169 38.072C334.169 36.6427 333.807 35.544 333.081 34.776C332.377 34.008 331.503 33.624 330.457 33.624C329.391 33.624 328.505 34.008 327.801 34.776C327.097 35.5227 326.745 36.6213 326.745 38.072C326.745 39.5013 327.087 40.6 327.769 41.368C328.473 42.136 329.348 42.52 330.393 42.52ZM350.768 47.256C349.019 47.256 347.44 46.8827 346.032 46.136C344.646 45.3893 343.547 44.3227 342.736 42.936C341.947 41.5493 341.552 39.928 341.552 38.072C341.552 36.2373 341.958 34.6267 342.768 33.24C343.579 31.832 344.688 30.7547 346.096 30.008C347.504 29.2613 349.083 28.888 350.832 28.888C352.582 28.888 354.16 29.2613 355.568 30.008C356.976 30.7547 358.086 31.832 358.896 33.24C359.707 34.6267 360.112 36.2373 360.112 38.072C360.112 39.9067 359.696 41.528 358.864 42.936C358.054 44.3227 356.934 45.3893 355.504 46.136C354.096 46.8827 352.518 47.256 350.768 47.256ZM350.768 42.52C351.814 42.52 352.699 42.136 353.424 41.368C354.171 40.6 354.544 39.5013 354.544 38.072C354.544 36.6427 354.182 35.544 353.456 34.776C352.752 34.008 351.878 33.624 350.832 33.624C349.766 33.624 348.88 34.008 348.176 34.776C347.472 35.5227 347.12 36.6213 347.12 38.072C347.12 39.5013 347.462 40.6 348.144 41.368C348.848 42.136 349.723 42.52 350.768 42.52ZM373.895 28.952C375.986 28.952 377.65 29.6347 378.887 31C380.146 32.344 380.775 34.2 380.775 36.568V47H375.335V37.304C375.335 36.1093 375.026 35.1813 374.407 34.52C373.789 33.8587 372.957 33.528 371.911 33.528C370.866 33.528 370.034 33.8587 369.415 34.52C368.797 35.1813 368.487 36.1093 368.487 37.304V47H363.015V29.144H368.487V31.512C369.042 30.7227 369.789 30.104 370.727 29.656C371.666 29.1867 372.722 28.952 373.895 28.952Z" fill="#E5E5E5"/>
<path d="M53.032 100.168C53.032 101.56 52.552 102.72 51.592 103.648C50.648 104.56 49.2 105.016 47.248 105.016H44.032V112H41.848V95.272H47.248C49.136 95.272 50.568 95.728 51.544 96.64C52.536 97.552 53.032 98.728 53.032 100.168ZM47.248 103.216C48.464 103.216 49.36 102.952 49.936 102.424C50.512 101.896 50.8 101.144 50.8 100.168C50.8 98.104 49.616 97.072 47.248 97.072H44.032V103.216H47.248ZM54.9304 105.376C54.9304 104.032 55.2024 102.856 55.7464 101.848C56.2904 100.824 57.0344 100.032 57.9784 99.472C58.9384 98.912 60.0024 98.632 61.1704 98.632C62.3224 98.632 63.3224 98.88 64.1704 99.376C65.0184 99.872 65.6504 100.496 66.0664 101.248V98.848H68.2744V112H66.0664V109.552C65.6344 110.32 64.9864 110.96 64.1224 111.472C63.2744 111.968 62.2824 112.216 61.1464 112.216C59.9784 112.216 58.9224 111.928 57.9784 111.352C57.0344 110.776 56.2904 109.968 55.7464 108.928C55.2024 107.888 54.9304 106.704 54.9304 105.376ZM66.0664 105.4C66.0664 104.408 65.8664 103.544 65.4664 102.808C65.0664 102.072 64.5224 101.512 63.8344 101.128C63.1624 100.728 62.4184 100.528 61.6024 100.528C60.7864 100.528 60.0424 100.72 59.3704 101.104C58.6984 101.488 58.1624 102.048 57.7624 102.784C57.3624 103.52 57.1624 104.384 57.1624 105.376C57.1624 106.384 57.3624 107.264 57.7624 108.016C58.1624 108.752 58.6984 109.32 59.3704 109.72C60.0424 110.104 60.7864 110.296 61.6024 110.296C62.4184 110.296 63.1624 110.104 63.8344 109.72C64.5224 109.32 65.0664 108.752 65.4664 108.016C65.8664 107.264 66.0664 106.392 66.0664 105.4ZM76.6212 112.216C75.6132 112.216 74.7092 112.048 73.9092 111.712C73.1092 111.36 72.4772 110.88 72.0132 110.272C71.5492 109.648 71.2932 108.936 71.2452 108.136H73.5012C73.5652 108.792 73.8692 109.328 74.4132 109.744C74.9732 110.16 75.7012 110.368 76.5972 110.368C77.4292 110.368 78.0852 110.184 78.5652 109.816C79.0452 109.448 79.2852 108.984 79.2852 108.424C79.2852 107.848 79.0292 107.424 78.5172 107.152C78.0052 106.864 77.2132 106.584 76.1412 106.312C75.1652 106.056 74.3652 105.8 73.7412 105.544C73.1332 105.272 72.6052 104.88 72.1572 104.368C71.7252 103.84 71.5092 103.152 71.5092 102.304C71.5092 101.632 71.7092 101.016 72.1092 100.456C72.5092 99.896 73.0772 99.456 73.8132 99.136C74.5492 98.8 75.3892 98.632 76.3332 98.632C77.7892 98.632 78.9652 99 79.8612 99.736C80.7572 100.472 81.2372 101.48 81.3012 102.76H79.1172C79.0692 102.072 78.7892 101.52 78.2772 101.104C77.7812 100.688 77.1092 100.48 76.2612 100.48C75.4772 100.48 74.8532 100.648 74.3892 100.984C73.9252 101.32 73.6932 101.76 73.6932 102.304C73.6932 102.736 73.8292 103.096 74.1012 103.384C74.3892 103.656 74.7412 103.88 75.1572 104.056C75.5892 104.216 76.1812 104.4 76.9332 104.608C77.8772 104.864 78.6452 105.12 79.2372 105.376C79.8292 105.616 80.3332 105.984 80.7492 106.48C81.1812 106.976 81.4052 107.624 81.4212 108.424C81.4212 109.144 81.2212 109.792 80.8212 110.368C80.4212 110.944 79.8532 111.4 79.1172 111.736C78.3972 112.056 77.5652 112.216 76.6212 112.216ZM87.1683 100.648V108.4C87.1683 109.04 87.3043 109.496 87.5763 109.768C87.8483 110.024 88.3203 110.152 88.9922 110.152H90.6003V112H88.6323C87.4163 112 86.5043 111.72 85.8963 111.16C85.2883 110.6 84.9843 109.68 84.9843 108.4V100.648H83.2803V98.848H84.9843V95.536H87.1683V98.848H90.6003V100.648H87.1683ZM105.246 104.92C105.246 105.336 105.222 105.776 105.174 106.24H94.6624C94.7424 107.536 95.1824 108.552 95.9824 109.288C96.7984 110.008 97.7824 110.368 98.9344 110.368C99.8784 110.368 100.662 110.152 101.286 109.72C101.926 109.272 102.374 108.68 102.63 107.944H104.982C104.63 109.208 103.926 110.24 102.87 111.04C101.814 111.824 100.502 112.216 98.9344 112.216C97.6864 112.216 96.5664 111.936 95.5744 111.376C94.5984 110.816 93.8304 110.024 93.2704 109C92.7104 107.96 92.4304 106.76 92.4304 105.4C92.4304 104.04 92.7024 102.848 93.2464 101.824C93.7904 100.8 94.5504 100.016 95.5264 99.472C96.5184 98.912 97.6544 98.632 98.9344 98.632C100.182 98.632 101.286 98.904 102.246 99.448C103.206 99.992 103.942 100.744 104.454 101.704C104.982 102.648 105.246 103.72 105.246 104.92ZM102.99 104.464C102.99 103.632 102.806 102.92 102.438 102.328C102.07 101.72 101.566 101.264 100.926 100.96C100.302 100.64 99.6064 100.48 98.8384 100.48C97.7344 100.48 96.7904 100.832 96.0064 101.536C95.2384 102.24 94.7984 103.216 94.6864 104.464H102.99ZM113.712 103.624C113.712 101.992 114.08 100.528 114.816 99.232C115.552 97.92 116.552 96.896 117.816 96.16C119.096 95.424 120.512 95.056 122.064 95.056C123.888 95.056 125.48 95.496 126.84 96.376C128.2 97.256 129.192 98.504 129.816 100.12H127.2C126.736 99.112 126.064 98.336 125.184 97.792C124.32 97.248 123.28 96.976 122.064 96.976C120.896 96.976 119.848 97.248 118.92 97.792C117.992 98.336 117.264 99.112 116.736 100.12C116.208 101.112 115.944 102.28 115.944 103.624C115.944 104.952 116.208 106.12 116.736 107.128C117.264 108.12 117.992 108.888 118.92 109.432C119.848 109.976 120.896 110.248 122.064 110.248C123.28 110.248 124.32 109.984 125.184 109.456C126.064 108.912 126.736 108.136 127.2 107.128H129.816C129.192 108.728 128.2 109.968 126.84 110.848C125.48 111.712 123.888 112.144 122.064 112.144C120.512 112.144 119.096 111.784 117.816 111.064C116.552 110.328 115.552 109.312 114.816 108.016C114.08 106.72 113.712 105.256 113.712 103.624ZM142.955 108.28H135.659L134.315 112H132.011L138.059 95.368H140.579L146.603 112H144.299L142.955 108.28ZM142.331 106.504L139.307 98.056L136.283 106.504H142.331ZM167.301 98.848V112H165.117V110.056C164.701 110.728 164.117 111.256 163.365 111.64C162.629 112.008 161.813 112.192 160.917 112.192C159.893 112.192 158.973 111.984 158.157 111.568C157.341 111.136 156.693 110.496 156.213 109.648C155.749 108.8 155.517 107.768 155.517 106.552V98.848H157.677V106.264C157.677 107.56 158.005 108.56 158.661 109.264C159.317 109.952 160.213 110.296 161.349 110.296C162.517 110.296 163.437 109.936 164.109 109.216C164.781 108.496 165.117 107.448 165.117 106.072V98.848H167.301ZM175.645 112.216C174.637 112.216 173.733 112.048 172.933 111.712C172.133 111.36 171.501 110.88 171.037 110.272C170.573 109.648 170.317 108.936 170.269 108.136H172.525C172.589 108.792 172.893 109.328 173.437 109.744C173.997 110.16 174.725 110.368 175.621 110.368C176.453 110.368 177.109 110.184 177.589 109.816C178.069 109.448 178.309 108.984 178.309 108.424C178.309 107.848 178.053 107.424 177.541 107.152C177.029 106.864 176.237 106.584 175.165 106.312C174.189 106.056 173.389 105.8 172.765 105.544C172.157 105.272 171.629 104.88 171.181 104.368C170.749 103.84 170.533 103.152 170.533 102.304C170.533 101.632 170.733 101.016 171.133 100.456C171.533 99.896 172.101 99.456 172.837 99.136C173.573 98.8 174.413 98.632 175.357 98.632C176.813 98.632 177.989 99 178.885 99.736C179.781 100.472 180.261 101.48 180.325 102.76H178.141C178.093 102.072 177.813 101.52 177.301 101.104C176.805 100.688 176.133 100.48 175.285 100.48C174.501 100.48 173.877 100.648 173.413 100.984C172.949 101.32 172.717 101.76 172.717 102.304C172.717 102.736 172.853 103.096 173.125 103.384C173.413 103.656 173.765 103.88 174.181 104.056C174.613 104.216 175.205 104.4 175.957 104.608C176.901 104.864 177.669 105.12 178.261 105.376C178.853 105.616 179.357 105.984 179.773 106.48C180.205 106.976 180.429 107.624 180.445 108.424C180.445 109.144 180.245 109.792 179.845 110.368C179.445 110.944 178.877 111.4 178.141 111.736C177.421 112.056 176.589 112.216 175.645 112.216ZM184.656 96.712C184.24 96.712 183.888 96.568 183.6 96.28C183.312 95.992 183.168 95.64 183.168 95.224C183.168 94.808 183.312 94.456 183.6 94.168C183.888 93.88 184.24 93.736 184.656 93.736C185.056 93.736 185.392 93.88 185.664 94.168C185.952 94.456 186.096 94.808 186.096 95.224C186.096 95.64 185.952 95.992 185.664 96.28C185.392 96.568 185.056 96.712 184.656 96.712ZM185.712 98.848V112H183.528V98.848H185.712ZM195.842 98.608C197.442 98.608 198.738 99.096 199.73 100.072C200.722 101.032 201.218 102.424 201.218 104.248V112H199.058V104.56C199.058 103.248 198.73 102.248 198.074 101.56C197.418 100.856 196.522 100.504 195.386 100.504C194.234 100.504 193.314 100.864 192.626 101.584C191.954 102.304 191.618 103.352 191.618 104.728V112H189.434V98.848H191.618V100.72C192.05 100.048 192.634 99.528 193.37 99.16C194.122 98.792 194.946 98.608 195.842 98.608ZM210.21 98.632C211.346 98.632 212.338 98.88 213.186 99.376C214.05 99.872 214.69 100.496 215.106 101.248V98.848H217.314V112.288C217.314 113.488 217.058 114.552 216.546 115.48C216.034 116.424 215.298 117.16 214.338 117.688C213.394 118.216 212.29 118.48 211.026 118.48C209.298 118.48 207.858 118.072 206.706 117.256C205.554 116.44 204.874 115.328 204.666 113.92H206.826C207.066 114.72 207.562 115.36 208.314 115.84C209.066 116.336 209.97 116.584 211.026 116.584C212.226 116.584 213.202 116.208 213.954 115.456C214.722 114.704 215.106 113.648 215.106 112.288V109.528C214.674 110.296 214.034 110.936 213.186 111.448C212.338 111.96 211.346 112.216 210.21 112.216C209.042 112.216 207.978 111.928 207.018 111.352C206.074 110.776 205.33 109.968 204.786 108.928C204.242 107.888 203.97 106.704 203.97 105.376C203.97 104.032 204.242 102.856 204.786 101.848C205.33 100.824 206.074 100.032 207.018 99.472C207.978 98.912 209.042 98.632 210.21 98.632ZM215.106 105.4C215.106 104.408 214.906 103.544 214.506 102.808C214.106 102.072 213.562 101.512 212.874 101.128C212.202 100.728 211.458 100.528 210.642 100.528C209.826 100.528 209.082 100.72 208.41 101.104C207.738 101.488 207.202 102.048 206.802 102.784C206.402 103.52 206.202 104.384 206.202 105.376C206.202 106.384 206.402 107.264 206.802 108.016C207.202 108.752 207.738 109.32 208.41 109.72C209.082 110.104 209.826 110.296 210.642 110.296C211.458 110.296 212.202 110.104 212.874 109.72C213.562 109.32 214.106 108.752 214.506 108.016C214.906 107.264 215.106 106.392 215.106 105.4ZM238.587 100.168C238.587 101.56 238.107 102.72 237.147 103.648C236.203 104.56 234.755 105.016 232.803 105.016H229.587V112H227.403V95.272H232.803C234.691 95.272 236.123 95.728 237.099 96.64C238.091 97.552 238.587 98.728 238.587 100.168ZM232.803 103.216C234.019 103.216 234.915 102.952 235.491 102.424C236.067 101.896 236.355 101.144 236.355 100.168C236.355 98.104 235.171 97.072 232.803 97.072H229.587V103.216H232.803ZM247.829 98.608C248.821 98.608 249.717 98.824 250.517 99.256C251.317 99.672 251.941 100.304 252.389 101.152C252.853 102 253.085 103.032 253.085 104.248V112H250.925V104.56C250.925 103.248 250.597 102.248 249.941 101.56C249.285 100.856 248.389 100.504 247.253 100.504C246.101 100.504 245.181 100.864 244.493 101.584C243.821 102.304 243.485 103.352 243.485 104.728V112H241.301V94.24H243.485V100.72C243.917 100.048 244.509 99.528 245.261 99.16C246.029 98.792 246.885 98.608 247.829 98.608ZM255.837 105.376C255.837 104.032 256.109 102.856 256.653 101.848C257.197 100.824 257.941 100.032 258.885 99.472C259.845 98.912 260.909 98.632 262.077 98.632C263.229 98.632 264.229 98.88 265.077 99.376C265.925 99.872 266.557 100.496 266.973 101.248V98.848H269.181V112H266.973V109.552C266.541 110.32 265.893 110.96 265.029 111.472C264.181 111.968 263.189 112.216 262.053 112.216C260.885 112.216 259.829 111.928 258.885 111.352C257.941 110.776 257.197 109.968 256.653 108.928C256.109 107.888 255.837 106.704 255.837 105.376ZM266.973 105.4C266.973 104.408 266.773 103.544 266.373 102.808C265.973 102.072 265.429 101.512 264.741 101.128C264.069 100.728 263.325 100.528 262.509 100.528C261.693 100.528 260.949 100.72 260.277 101.104C259.605 101.488 259.069 102.048 258.669 102.784C258.269 103.52 258.069 104.384 258.069 105.376C258.069 106.384 258.269 107.264 258.669 108.016C259.069 108.752 259.605 109.32 260.277 109.72C260.949 110.104 261.693 110.296 262.509 110.296C263.325 110.296 264.069 110.104 264.741 109.72C265.429 109.32 265.973 108.752 266.373 108.016C266.773 107.264 266.973 106.392 266.973 105.4ZM279.279 98.608C280.879 98.608 282.175 99.096 283.167 100.072C284.159 101.032 284.655 102.424 284.655 104.248V112H282.495V104.56C282.495 103.248 282.167 102.248 281.511 101.56C280.855 100.856 279.959 100.504 278.823 100.504C277.671 100.504 276.751 100.864 276.063 101.584C275.391 102.304 275.055 103.352 275.055 104.728V112H272.871V98.848H275.055V100.72C275.487 100.048 276.071 99.528 276.807 99.16C277.559 98.792 278.383 98.608 279.279 98.608ZM290.887 100.648V108.4C290.887 109.04 291.023 109.496 291.295 109.768C291.567 110.024 292.039 110.152 292.711 110.152H294.319V112H292.351C291.135 112 290.223 111.72 289.615 111.16C289.007 110.6 288.703 109.68 288.703 108.4V100.648H286.999V98.848H288.703V95.536H290.887V98.848H294.319V100.648H290.887ZM302.701 112.216C301.469 112.216 300.349 111.936 299.341 111.376C298.349 110.816 297.565 110.024 296.989 109C296.429 107.96 296.149 106.76 296.149 105.4C296.149 104.056 296.437 102.872 297.013 101.848C297.605 100.808 298.405 100.016 299.413 99.472C300.421 98.912 301.549 98.632 302.797 98.632C304.045 98.632 305.173 98.912 306.181 99.472C307.189 100.016 307.981 100.8 308.557 101.824C309.149 102.848 309.445 104.04 309.445 105.4C309.445 106.76 309.141 107.96 308.533 109C307.941 110.024 307.133 110.816 306.109 111.376C305.085 111.936 303.949 112.216 302.701 112.216ZM302.701 110.296C303.485 110.296 304.221 110.112 304.909 109.744C305.597 109.376 306.149 108.824 306.565 108.088C306.997 107.352 307.213 106.456 307.213 105.4C307.213 104.344 307.005 103.448 306.589 102.712C306.173 101.976 305.629 101.432 304.957 101.08C304.285 100.712 303.557 100.528 302.773 100.528C301.973 100.528 301.237 100.712 300.565 101.08C299.909 101.432 299.381 101.976 298.981 102.712C298.581 103.448 298.381 104.344 298.381 105.4C298.381 106.472 298.573 107.376 298.957 108.112C299.357 108.848 299.885 109.4 300.541 109.768C301.197 110.12 301.917 110.296 302.701 110.296ZM328.133 98.608C329.157 98.608 330.069 98.824 330.869 99.256C331.669 99.672 332.301 100.304 332.765 101.152C333.229 102 333.461 103.032 333.461 104.248V112H331.301V104.56C331.301 103.248 330.973 102.248 330.317 101.56C329.677 100.856 328.805 100.504 327.701 100.504C326.565 100.504 325.661 100.872 324.989 101.608C324.317 102.328 323.981 103.376 323.981 104.752V112H321.821V104.56C321.821 103.248 321.493 102.248 320.837 101.56C320.197 100.856 319.325 100.504 318.221 100.504C317.085 100.504 316.181 100.872 315.509 101.608C314.837 102.328 314.501 103.376 314.501 104.752V112H312.317V98.848H314.501V100.744C314.933 100.056 315.509 99.528 316.229 99.16C316.965 98.792 317.773 98.608 318.653 98.608C319.757 98.608 320.733 98.856 321.581 99.352C322.429 99.848 323.061 100.576 323.477 101.536C323.845 100.608 324.453 99.888 325.301 99.376C326.149 98.864 327.093 98.608 328.133 98.608ZM59.368 134.848L55.264 148H53.008L49.84 137.56L46.672 148H44.416L40.288 134.848H42.52L45.544 145.888L48.808 134.848H51.04L54.232 145.912L57.208 134.848H59.368ZM60.7195 141.376C60.7195 140.032 60.9915 138.856 61.5355 137.848C62.0795 136.824 62.8235 136.032 63.7675 135.472C64.7275 134.912 65.7915 134.632 66.9595 134.632C68.1115 134.632 69.1115 134.88 69.9595 135.376C70.8075 135.872 71.4395 136.496 71.8555 137.248V134.848H74.0635V148H71.8555V145.552C71.4235 146.32 70.7755 146.96 69.9115 147.472C69.0635 147.968 68.0715 148.216 66.9355 148.216C65.7675 148.216 64.7115 147.928 63.7675 147.352C62.8235 146.776 62.0795 145.968 61.5355 144.928C60.9915 143.888 60.7195 142.704 60.7195 141.376ZM71.8555 141.4C71.8555 140.408 71.6555 139.544 71.2555 138.808C70.8555 138.072 70.3115 137.512 69.6235 137.128C68.9515 136.728 68.2075 136.528 67.3915 136.528C66.5755 136.528 65.8315 136.72 65.1595 137.104C64.4875 137.488 63.9515 138.048 63.5515 138.784C63.1515 139.52 62.9515 140.384 62.9515 141.376C62.9515 142.384 63.1515 143.264 63.5515 144.016C63.9515 144.752 64.4875 145.32 65.1595 145.72C65.8315 146.104 66.5755 146.296 67.3915 146.296C68.2075 146.296 68.9515 146.104 69.6235 145.72C70.3115 145.32 70.8555 144.752 71.2555 144.016C71.6555 143.264 71.8555 142.392 71.8555 141.4ZM79.9383 130.24V148H77.7543V130.24H79.9383ZM85.8445 130.24V148H83.6605V130.24H85.8445ZM101.567 140.92C101.567 141.336 101.543 141.776 101.495 142.24H90.9828C91.0628 143.536 91.5028 144.552 92.3028 145.288C93.1188 146.008 94.1028 146.368 95.2548 146.368C96.1988 146.368 96.9828 146.152 97.6068 145.72C98.2468 145.272 98.6948 144.68 98.9508 143.944H101.303C100.951 145.208 100.247 146.24 99.1908 147.04C98.1348 147.824 96.8228 148.216 95.2548 148.216C94.0068 148.216 92.8868 147.936 91.8948 147.376C90.9188 146.816 90.1508 146.024 89.5908 145C89.0308 143.96 88.7508 142.76 88.7508 141.4C88.7508 140.04 89.0228 138.848 89.5668 137.824C90.1108 136.8 90.8708 136.016 91.8468 135.472C92.8388 134.912 93.9748 134.632 95.2548 134.632C96.5028 134.632 97.6068 134.904 98.5668 135.448C99.5268 135.992 100.263 136.744 100.775 137.704C101.303 138.648 101.567 139.72 101.567 140.92ZM99.3108 140.464C99.3108 139.632 99.1268 138.92 98.7588 138.328C98.3908 137.72 97.8868 137.264 97.2468 136.96C96.6228 136.64 95.9268 136.48 95.1588 136.48C94.0548 136.48 93.1108 136.832 92.3268 137.536C91.5588 138.24 91.1188 139.216 91.0068 140.464H99.3108ZM107.114 136.648V144.4C107.114 145.04 107.25 145.496 107.522 145.768C107.794 146.024 108.266 146.152 108.938 146.152H110.546V148H108.578C107.362 148 106.45 147.72 105.842 147.16C105.234 146.6 104.93 145.68 104.93 144.4V136.648H103.226V134.848H104.93V131.536H107.114V134.848H110.546V136.648H107.114ZM125.326 148.216C124.094 148.216 122.974 147.936 121.966 147.376C120.974 146.816 120.19 146.024 119.614 145C119.054 143.96 118.774 142.76 118.774 141.4C118.774 140.056 119.062 138.872 119.638 137.848C120.23 136.808 121.03 136.016 122.038 135.472C123.046 134.912 124.174 134.632 125.422 134.632C126.67 134.632 127.798 134.912 128.806 135.472C129.814 136.016 130.606 136.8 131.182 137.824C131.774 138.848 132.07 140.04 132.07 141.4C132.07 142.76 131.766 143.96 131.158 145C130.566 146.024 129.758 146.816 128.734 147.376C127.71 147.936 126.574 148.216 125.326 148.216ZM125.326 146.296C126.11 146.296 126.846 146.112 127.534 145.744C128.222 145.376 128.774 144.824 129.19 144.088C129.622 143.352 129.838 142.456 129.838 141.4C129.838 140.344 129.63 139.448 129.214 138.712C128.798 137.976 128.254 137.432 127.582 137.08C126.91 136.712 126.182 136.528 125.398 136.528C124.598 136.528 123.862 136.712 123.19 137.08C122.534 137.432 122.006 137.976 121.606 138.712C121.206 139.448 121.006 140.344 121.006 141.4C121.006 142.472 121.198 143.376 121.582 144.112C121.982 144.848 122.51 145.4 123.166 145.768C123.822 146.12 124.542 146.296 125.326 146.296ZM137.126 136.984C137.51 136.232 138.054 135.648 138.758 135.232C139.478 134.816 140.35 134.608 141.374 134.608V136.864H140.798C138.35 136.864 137.126 138.192 137.126 140.848V148H134.942V134.848H137.126V136.984ZM162.293 140.92C162.293 141.336 162.269 141.776 162.221 142.24H151.709C151.789 143.536 152.229 144.552 153.029 145.288C153.845 146.008 154.829 146.368 155.981 146.368C156.925 146.368 157.709 146.152 158.333 145.72C158.973 145.272 159.421 144.68 159.677 143.944H162.029C161.677 145.208 160.973 146.24 159.917 147.04C158.861 147.824 157.549 148.216 155.981 148.216C154.733 148.216 153.613 147.936 152.621 147.376C151.645 146.816 150.877 146.024 150.317 145C149.757 143.96 149.477 142.76 149.477 141.4C149.477 140.04 149.749 138.848 150.293 137.824C150.837 136.8 151.597 136.016 152.573 135.472C153.565 134.912 154.701 134.632 155.981 134.632C157.229 134.632 158.333 134.904 159.293 135.448C160.253 135.992 160.989 136.744 161.501 137.704C162.029 138.648 162.293 139.72 162.293 140.92ZM160.037 140.464C160.037 139.632 159.853 138.92 159.485 138.328C159.117 137.72 158.613 137.264 157.973 136.96C157.349 136.64 156.653 136.48 155.885 136.48C154.781 136.48 153.837 136.832 153.053 137.536C152.285 138.24 151.845 139.216 151.733 140.464H160.037ZM167.36 130.24V148H165.176V130.24H167.36ZM175.738 148.216C174.73 148.216 173.826 148.048 173.026 147.712C172.226 147.36 171.594 146.88 171.13 146.272C170.666 145.648 170.41 144.936 170.362 144.136H172.618C172.682 144.792 172.986 145.328 173.53 145.744C174.09 146.16 174.818 146.368 175.714 146.368C176.546 146.368 177.202 146.184 177.682 145.816C178.162 145.448 178.402 144.984 178.402 144.424C178.402 143.848 178.146 143.424 177.634 143.152C177.122 142.864 176.33 142.584 175.258 142.312C174.282 142.056 173.482 141.8 172.858 141.544C172.25 141.272 171.722 140.88 171.274 140.368C170.842 139.84 170.626 139.152 170.626 138.304C170.626 137.632 170.826 137.016 171.226 136.456C171.626 135.896 172.194 135.456 172.93 135.136C173.666 134.8 174.506 134.632 175.45 134.632C176.906 134.632 178.082 135 178.978 135.736C179.874 136.472 180.354 137.48 180.418 138.76H178.234C178.186 138.072 177.906 137.52 177.394 137.104C176.898 136.688 176.226 136.48 175.378 136.48C174.594 136.48 173.97 136.648 173.506 136.984C173.042 137.32 172.81 137.76 172.81 138.304C172.81 138.736 172.946 139.096 173.218 139.384C173.506 139.656 173.858 139.88 174.274 140.056C174.706 140.216 175.298 140.4 176.05 140.608C176.994 140.864 177.762 141.12 178.354 141.376C178.946 141.616 179.45 141.984 179.866 142.48C180.298 142.976 180.522 143.624 180.538 144.424C180.538 145.144 180.338 145.792 179.938 146.368C179.538 146.944 178.97 147.4 178.234 147.736C177.514 148.056 176.682 148.216 175.738 148.216ZM195.621 140.92C195.621 141.336 195.597 141.776 195.549 142.24H185.037C185.117 143.536 185.557 144.552 186.357 145.288C187.173 146.008 188.157 146.368 189.309 146.368C190.253 146.368 191.037 146.152 191.661 145.72C192.301 145.272 192.749 144.68 193.005 143.944H195.357C195.005 145.208 194.301 146.24 193.245 147.04C192.189 147.824 190.877 148.216 189.309 148.216C188.061 148.216 186.941 147.936 185.949 147.376C184.973 146.816 184.205 146.024 183.645 145C183.085 143.96 182.805 142.76 182.805 141.4C182.805 140.04 183.077 138.848 183.621 137.824C184.165 136.8 184.925 136.016 185.901 135.472C186.893 134.912 188.029 134.632 189.309 134.632C190.557 134.632 191.661 134.904 192.621 135.448C193.581 135.992 194.317 136.744 194.829 137.704C195.357 138.648 195.621 139.72 195.621 140.92ZM193.365 140.464C193.365 139.632 193.181 138.92 192.813 138.328C192.445 137.72 191.941 137.264 191.301 136.96C190.677 136.64 189.981 136.48 189.213 136.48C188.109 136.48 187.165 136.832 186.381 137.536C185.613 138.24 185.173 139.216 185.061 140.464H193.365ZM207.567 136.648V144.4C207.567 145.04 207.703 145.496 207.975 145.768C208.247 146.024 208.719 146.152 209.391 146.152H210.999V148H209.031C207.815 148 206.903 147.72 206.295 147.16C205.687 146.6 205.383 145.68 205.383 144.4V136.648H203.679V134.848H205.383V131.536H207.567V134.848H210.999V136.648H207.567ZM219.381 148.216C218.149 148.216 217.029 147.936 216.021 147.376C215.029 146.816 214.245 146.024 213.669 145C213.109 143.96 212.829 142.76 212.829 141.4C212.829 140.056 213.117 138.872 213.693 137.848C214.285 136.808 215.085 136.016 216.093 135.472C217.101 134.912 218.229 134.632 219.477 134.632C220.725 134.632 221.853 134.912 222.861 135.472C223.869 136.016 224.661 136.8 225.237 137.824C225.829 138.848 226.125 140.04 226.125 141.4C226.125 142.76 225.821 143.96 225.213 145C224.621 146.024 223.813 146.816 222.789 147.376C221.765 147.936 220.629 148.216 219.381 148.216ZM219.381 146.296C220.165 146.296 220.901 146.112 221.589 145.744C222.277 145.376 222.829 144.824 223.245 144.088C223.677 143.352 223.893 142.456 223.893 141.4C223.893 140.344 223.685 139.448 223.269 138.712C222.853 137.976 222.309 137.432 221.637 137.08C220.965 136.712 220.237 136.528 219.453 136.528C218.653 136.528 217.917 136.712 217.245 137.08C216.589 137.432 216.061 137.976 215.661 138.712C215.261 139.448 215.061 140.344 215.061 141.4C215.061 142.472 215.253 143.376 215.637 144.112C216.037 144.848 216.565 145.4 217.221 145.768C217.877 146.12 218.597 146.296 219.381 146.296ZM240.051 148.216C239.043 148.216 238.139 148.048 237.339 147.712C236.539 147.36 235.907 146.88 235.443 146.272C234.979 145.648 234.723 144.936 234.675 144.136H236.931C236.995 144.792 237.299 145.328 237.843 145.744C238.403 146.16 239.131 146.368 240.027 146.368C240.859 146.368 241.515 146.184 241.995 145.816C242.475 145.448 242.715 144.984 242.715 144.424C242.715 143.848 242.459 143.424 241.947 143.152C241.435 142.864 240.643 142.584 239.571 142.312C238.595 142.056 237.795 141.8 237.171 141.544C236.563 141.272 236.035 140.88 235.587 140.368C235.155 139.84 234.939 139.152 234.939 138.304C234.939 137.632 235.139 137.016 235.539 136.456C235.939 135.896 236.507 135.456 237.243 135.136C237.979 134.8 238.819 134.632 239.763 134.632C241.219 134.632 242.395 135 243.291 135.736C244.187 136.472 244.667 137.48 244.731 138.76H242.547C242.499 138.072 242.219 137.52 241.707 137.104C241.211 136.688 240.539 136.48 239.691 136.48C238.907 136.48 238.283 136.648 237.819 136.984C237.355 137.32 237.123 137.76 237.123 138.304C237.123 138.736 237.259 139.096 237.531 139.384C237.819 139.656 238.171 139.88 238.587 140.056C239.019 140.216 239.611 140.4 240.363 140.608C241.307 140.864 242.075 141.12 242.667 141.376C243.259 141.616 243.763 141.984 244.179 142.48C244.611 142.976 244.835 143.624 244.851 144.424C244.851 145.144 244.651 145.792 244.251 146.368C243.851 146.944 243.283 147.4 242.547 147.736C241.827 148.056 240.995 148.216 240.051 148.216ZM265.454 134.848L261.35 148H259.094L255.926 137.56L252.758 148H250.502L246.374 134.848H248.606L251.63 145.888L254.894 134.848H257.126L260.318 145.912L263.294 134.848H265.454ZM266.805 141.376C266.805 140.032 267.077 138.856 267.621 137.848C268.165 136.824 268.909 136.032 269.853 135.472C270.813 134.912 271.877 134.632 273.045 134.632C274.197 134.632 275.197 134.88 276.045 135.376C276.893 135.872 277.525 136.496 277.941 137.248V134.848H280.149V148H277.941V145.552C277.509 146.32 276.861 146.96 275.997 147.472C275.149 147.968 274.157 148.216 273.021 148.216C271.853 148.216 270.797 147.928 269.853 147.352C268.909 146.776 268.165 145.968 267.621 144.928C267.077 143.888 266.805 142.704 266.805 141.376ZM277.941 141.4C277.941 140.408 277.741 139.544 277.341 138.808C276.941 138.072 276.397 137.512 275.709 137.128C275.037 136.728 274.293 136.528 273.477 136.528C272.661 136.528 271.917 136.72 271.245 137.104C270.573 137.488 270.037 138.048 269.637 138.784C269.237 139.52 269.037 140.384 269.037 141.376C269.037 142.384 269.237 143.264 269.637 144.016C270.037 144.752 270.573 145.32 271.245 145.72C271.917 146.104 272.661 146.296 273.477 146.296C274.293 146.296 275.037 146.104 275.709 145.72C276.397 145.32 276.941 144.752 277.341 144.016C277.741 143.264 277.941 142.392 277.941 141.4ZM286.024 137.272C286.456 136.52 287.096 135.896 287.944 135.4C288.808 134.888 289.808 134.632 290.944 134.632C292.112 134.632 293.168 134.912 294.112 135.472C295.072 136.032 295.824 136.824 296.368 137.848C296.912 138.856 297.184 140.032 297.184 141.376C297.184 142.704 296.912 143.888 296.368 144.928C295.824 145.968 295.072 146.776 294.112 147.352C293.168 147.928 292.112 148.216 290.944 148.216C289.824 148.216 288.832 147.968 287.968 147.472C287.12 146.96 286.472 146.328 286.024 145.576V154.24H283.84V134.848H286.024V137.272ZM294.952 141.376C294.952 140.384 294.752 139.52 294.352 138.784C293.952 138.048 293.408 137.488 292.72 137.104C292.048 136.72 291.304 136.528 290.488 136.528C289.688 136.528 288.944 136.728 288.256 137.128C287.584 137.512 287.04 138.08 286.624 138.832C286.224 139.568 286.024 140.424 286.024 141.4C286.024 142.392 286.224 143.264 286.624 144.016C287.04 144.752 287.584 145.32 288.256 145.72C288.944 146.104 289.688 146.296 290.488 146.296C291.304 146.296 292.048 146.104 292.72 145.72C293.408 145.32 293.952 144.752 294.352 144.016C294.752 143.264 294.952 142.384 294.952 141.376ZM311.761 148.168C310.657 148.168 309.665 147.976 308.785 147.592C307.921 147.192 307.241 146.648 306.745 145.96C306.249 145.256 305.993 144.448 305.977 143.536H308.305C308.385 144.32 308.705 144.984 309.265 145.528C309.841 146.056 310.673 146.32 311.761 146.32C312.801 146.32 313.617 146.064 314.209 145.552C314.817 145.024 315.121 144.352 315.121 143.536C315.121 142.896 314.945 142.376 314.593 141.976C314.241 141.576 313.801 141.272 313.273 141.064C312.745 140.856 312.033 140.632 311.137 140.392C310.033 140.104 309.145 139.816 308.473 139.528C307.817 139.24 307.249 138.792 306.769 138.184C306.305 137.56 306.073 136.728 306.073 135.688C306.073 134.776 306.305 133.968 306.769 133.264C307.233 132.56 307.881 132.016 308.713 131.632C309.561 131.248 310.529 131.056 311.617 131.056C313.185 131.056 314.465 131.448 315.457 132.232C316.465 133.016 317.033 134.056 317.161 135.352H314.761C314.681 134.712 314.345 134.152 313.753 133.672C313.161 133.176 312.377 132.928 311.401 132.928C310.489 132.928 309.745 133.168 309.169 133.648C308.593 134.112 308.305 134.768 308.305 135.616C308.305 136.224 308.473 136.72 308.809 137.104C309.161 137.488 309.585 137.784 310.081 137.992C310.593 138.184 311.305 138.408 312.217 138.664C313.321 138.968 314.209 139.272 314.881 139.576C315.553 139.864 316.129 140.32 316.609 140.944C317.089 141.552 317.329 142.384 317.329 143.44C317.329 144.256 317.113 145.024 316.681 145.744C316.249 146.464 315.609 147.048 314.761 147.496C313.913 147.944 312.913 148.168 311.761 148.168ZM328.127 148.168C326.575 148.168 325.159 147.808 323.879 147.088C322.599 146.352 321.583 145.336 320.831 144.04C320.095 142.728 319.727 141.256 319.727 139.624C319.727 137.992 320.095 136.528 320.831 135.232C321.583 133.92 322.599 132.904 323.879 132.184C325.159 131.448 326.575 131.08 328.127 131.08C329.695 131.08 331.119 131.448 332.399 132.184C333.679 132.904 334.687 133.912 335.423 135.208C336.159 136.504 336.527 137.976 336.527 139.624C336.527 141.272 336.159 142.744 335.423 144.04C334.687 145.336 333.679 146.352 332.399 147.088C331.119 147.808 329.695 148.168 328.127 148.168ZM328.127 146.272C329.295 146.272 330.343 146 331.271 145.456C332.215 144.912 332.951 144.136 333.479 143.128C334.023 142.12 334.295 140.952 334.295 139.624C334.295 138.28 334.023 137.112 333.479 136.12C332.951 135.112 332.223 134.336 331.295 133.792C330.367 133.248 329.311 132.976 328.127 132.976C326.943 132.976 325.887 133.248 324.959 133.792C324.031 134.336 323.295 135.112 322.751 136.12C322.223 137.112 321.959 138.28 321.959 139.624C321.959 140.952 322.223 142.12 322.751 143.128C323.295 144.136 324.031 144.912 324.959 145.456C325.903 146 326.959 146.272 328.127 146.272ZM341.595 146.224H347.451V148H339.411V131.272H341.595V146.224ZM361.52 136.648H358.76V148H356.576V136.648H354.872V134.848H356.576V133.912C356.576 132.44 356.952 131.368 357.704 130.696C358.472 130.008 359.696 129.664 361.376 129.664V131.488C360.416 131.488 359.736 131.68 359.336 132.064C358.952 132.432 358.76 133.048 358.76 133.912V134.848H361.52V136.648ZM369.803 148.216C368.571 148.216 367.451 147.936 366.443 147.376C365.451 146.816 364.667 146.024 364.091 145C363.531 143.96 363.251 142.76 363.251 141.4C363.251 140.056 363.539 138.872 364.115 137.848C364.707 136.808 365.507 136.016 366.515 135.472C367.523 134.912 368.651 134.632 369.899 134.632C371.147 134.632 372.275 134.912 373.283 135.472C374.291 136.016 375.083 136.8 375.659 137.824C376.251 138.848 376.547 140.04 376.547 141.4C376.547 142.76 376.243 143.96 375.635 145C375.043 146.024 374.235 146.816 373.211 147.376C372.187 147.936 371.051 148.216 369.803 148.216ZM369.803 146.296C370.587 146.296 371.323 146.112 372.011 145.744C372.699 145.376 373.251 144.824 373.667 144.088C374.099 143.352 374.315 142.456 374.315 141.4C374.315 140.344 374.107 139.448 373.691 138.712C373.275 137.976 372.731 137.432 372.059 137.08C371.387 136.712 370.659 136.528 369.875 136.528C369.075 136.528 368.339 136.712 367.667 137.08C367.011 137.432 366.483 137.976 366.083 138.712C365.683 139.448 365.483 140.344 365.483 141.4C365.483 142.472 365.675 143.376 366.059 144.112C366.459 144.848 366.987 145.4 367.643 145.768C368.299 146.12 369.019 146.296 369.803 146.296ZM381.602 136.984C381.986 136.232 382.53 135.648 383.234 135.232C383.954 134.816 384.826 134.608 385.85 134.608V136.864H385.274C382.826 136.864 381.602 138.192 381.602 140.848V148H379.418V134.848H381.602V136.984ZM50.656 184L46.672 177.16H44.032V184H41.848V167.272H47.248C48.512 167.272 49.576 167.488 50.44 167.92C51.32 168.352 51.976 168.936 52.408 169.672C52.84 170.408 53.056 171.248 53.056 172.192C53.056 173.344 52.72 174.36 52.048 175.24C51.392 176.12 50.4 176.704 49.072 176.992L53.272 184H50.656ZM44.032 175.408H47.248C48.432 175.408 49.32 175.12 49.912 174.544C50.504 173.952 50.8 173.168 50.8 172.192C50.8 171.2 50.504 170.432 49.912 169.888C49.336 169.344 48.448 169.072 47.248 169.072H44.032V175.408ZM55.6336 177.376C55.6336 176.032 55.9056 174.856 56.4496 173.848C56.9936 172.824 57.7376 172.032 58.6816 171.472C59.6416 170.912 60.7056 170.632 61.8736 170.632C63.0256 170.632 64.0256 170.88 64.8736 171.376C65.7216 171.872 66.3536 172.496 66.7696 173.248V170.848H68.9776V184H66.7696V181.552C66.3376 182.32 65.6896 182.96 64.8256 183.472C63.9776 183.968 62.9856 184.216 61.8496 184.216C60.6816 184.216 59.6256 183.928 58.6816 183.352C57.7376 182.776 56.9936 181.968 56.4496 180.928C55.9056 179.888 55.6336 178.704 55.6336 177.376ZM66.7696 177.4C66.7696 176.408 66.5696 175.544 66.1696 174.808C65.7696 174.072 65.2256 173.512 64.5376 173.128C63.8656 172.728 63.1216 172.528 62.3056 172.528C61.4896 172.528 60.7456 172.72 60.0736 173.104C59.4016 173.488 58.8656 174.048 58.4656 174.784C58.0656 175.52 57.8656 176.384 57.8656 177.376C57.8656 178.384 58.0656 179.264 58.4656 180.016C58.8656 180.752 59.4016 181.32 60.0736 181.72C60.7456 182.104 61.4896 182.296 62.3056 182.296C63.1216 182.296 63.8656 182.104 64.5376 181.72C65.2256 181.32 65.7696 180.752 66.1696 180.016C66.5696 179.264 66.7696 178.392 66.7696 177.4ZM71.8523 177.4C71.8523 176.04 72.1243 174.856 72.6683 173.848C73.2123 172.824 73.9643 172.032 74.9243 171.472C75.9003 170.912 77.0123 170.632 78.2603 170.632C79.8763 170.632 81.2043 171.024 82.2443 171.808C83.3003 172.592 83.9963 173.68 84.3323 175.072H81.9803C81.7563 174.272 81.3163 173.64 80.6603 173.176C80.0203 172.712 79.2203 172.48 78.2603 172.48C77.0123 172.48 76.0043 172.912 75.2363 173.776C74.4683 174.624 74.0843 175.832 74.0843 177.4C74.0843 178.984 74.4683 180.208 75.2363 181.072C76.0043 181.936 77.0123 182.368 78.2603 182.368C79.2203 182.368 80.0203 182.144 80.6603 181.696C81.3003 181.248 81.7403 180.608 81.9803 179.776H84.3323C83.9803 181.12 83.2763 182.2 82.2203 183.016C81.1643 183.816 79.8443 184.216 78.2603 184.216C77.0123 184.216 75.9003 183.936 74.9243 183.376C73.9643 182.816 73.2123 182.024 72.6683 181C72.1243 179.976 71.8523 178.776 71.8523 177.4ZM92.9824 184.216C91.7504 184.216 90.6304 183.936 89.6224 183.376C88.6304 182.816 87.8464 182.024 87.2704 181C86.7104 179.96 86.4304 178.76 86.4304 177.4C86.4304 176.056 86.7184 174.872 87.2944 173.848C87.8864 172.808 88.6864 172.016 89.6944 171.472C90.7024 170.912 91.8304 170.632 93.0784 170.632C94.3264 170.632 95.4544 170.912 96.4624 171.472C97.4704 172.016 98.2624 172.8 98.8384 173.824C99.4304 174.848 99.7264 176.04 99.7264 177.4C99.7264 178.76 99.4224 179.96 98.8144 181C98.2224 182.024 97.4144 182.816 96.3904 183.376C95.3664 183.936 94.2304 184.216 92.9824 184.216ZM92.9824 182.296C93.7664 182.296 94.5024 182.112 95.1904 181.744C95.8784 181.376 96.4304 180.824 96.8464 180.088C97.2784 179.352 97.4944 178.456 97.4944 177.4C97.4944 176.344 97.2864 175.448 96.8704 174.712C96.4544 173.976 95.9104 173.432 95.2384 173.08C94.5664 172.712 93.8384 172.528 93.0544 172.528C92.2544 172.528 91.5184 172.712 90.8464 173.08C90.1904 173.432 89.6624 173.976 89.2624 174.712C88.8624 175.448 88.6624 176.344 88.6624 177.4C88.6624 178.472 88.8544 179.376 89.2384 180.112C89.6384 180.848 90.1664 181.4 90.8224 181.768C91.4784 182.12 92.1984 182.296 92.9824 182.296ZM108.334 184.216C107.102 184.216 105.982 183.936 104.974 183.376C103.982 182.816 103.198 182.024 102.622 181C102.062 179.96 101.782 178.76 101.782 177.4C101.782 176.056 102.07 174.872 102.646 173.848C103.238 172.808 104.038 172.016 105.046 171.472C106.054 170.912 107.182 170.632 108.43 170.632C109.678 170.632 110.806 170.912 111.814 171.472C112.822 172.016 113.614 172.8 114.19 173.824C114.782 174.848 115.078 176.04 115.078 177.4C115.078 178.76 114.774 179.96 114.166 181C113.574 182.024 112.766 182.816 111.742 183.376C110.718 183.936 109.582 184.216 108.334 184.216ZM108.334 182.296C109.118 182.296 109.854 182.112 110.542 181.744C111.23 181.376 111.782 180.824 112.198 180.088C112.63 179.352 112.846 178.456 112.846 177.4C112.846 176.344 112.638 175.448 112.222 174.712C111.806 173.976 111.262 173.432 110.59 173.08C109.918 172.712 109.19 172.528 108.406 172.528C107.606 172.528 106.87 172.712 106.198 173.08C105.542 173.432 105.014 173.976 104.614 174.712C104.214 175.448 104.014 176.344 104.014 177.4C104.014 178.472 104.206 179.376 104.59 180.112C104.99 180.848 105.518 181.4 106.174 181.768C106.83 182.12 107.55 182.296 108.334 182.296ZM124.358 170.608C125.958 170.608 127.254 171.096 128.246 172.072C129.238 173.032 129.734 174.424 129.734 176.248V184H127.574V176.56C127.574 175.248 127.246 174.248 126.59 173.56C125.934 172.856 125.038 172.504 123.902 172.504C122.75 172.504 121.83 172.864 121.142 173.584C120.47 174.304 120.134 175.352 120.134 176.728V184H117.95V170.848H120.134V172.72C120.566 172.048 121.15 171.528 121.886 171.16C122.638 170.792 123.462 170.608 124.358 170.608ZM154.325 167.272L149.477 184H147.029L143.141 170.536L139.109 184L136.685 184.024L132.005 167.272H134.333L137.981 181.456L142.013 167.272H144.461L148.301 181.408L151.973 167.272H154.325ZM157.843 168.712C157.427 168.712 157.075 168.568 156.787 168.28C156.499 167.992 156.355 167.64 156.355 167.224C156.355 166.808 156.499 166.456 156.787 166.168C157.075 165.88 157.427 165.736 157.843 165.736C158.243 165.736 158.579 165.88 158.851 166.168C159.139 166.456 159.283 166.808 159.283 167.224C159.283 167.64 159.139 167.992 158.851 168.28C158.579 168.568 158.243 168.712 157.843 168.712ZM158.899 170.848V184H156.715V170.848H158.899ZM167.973 172.648H165.213V184H163.029V172.648H161.325V170.848H163.029V169.912C163.029 168.44 163.405 167.368 164.157 166.696C164.925 166.008 166.149 165.664 167.829 165.664V167.488C166.869 167.488 166.189 167.68 165.789 168.064C165.405 168.432 165.213 169.048 165.213 169.912V170.848H167.973V172.648ZM169.704 175.624C169.704 173.992 170.072 172.528 170.808 171.232C171.544 169.92 172.544 168.896 173.808 168.16C175.088 167.424 176.504 167.056 178.056 167.056C179.88 167.056 181.472 167.496 182.832 168.376C184.192 169.256 185.184 170.504 185.808 172.12H183.192C182.728 171.112 182.056 170.336 181.176 169.792C180.312 169.248 179.272 168.976 178.056 168.976C176.888 168.976 175.84 169.248 174.912 169.792C173.984 170.336 173.256 171.112 172.728 172.12C172.2 173.112 171.936 174.28 171.936 175.624C171.936 176.952 172.2 178.12 172.728 179.128C173.256 180.12 173.984 180.888 174.912 181.432C175.84 181.976 176.888 182.248 178.056 182.248C179.272 182.248 180.312 181.984 181.176 181.456C182.056 180.912 182.728 180.136 183.192 179.128H185.808C185.184 180.728 184.192 181.968 182.832 182.848C181.472 183.712 179.88 184.144 178.056 184.144C176.504 184.144 175.088 183.784 173.808 183.064C172.544 182.328 171.544 181.312 170.808 180.016C170.072 178.72 169.704 177.256 169.704 175.624ZM188.243 177.376C188.243 176.032 188.515 174.856 189.059 173.848C189.603 172.824 190.347 172.032 191.291 171.472C192.251 170.912 193.315 170.632 194.483 170.632C195.635 170.632 196.635 170.88 197.483 171.376C198.331 171.872 198.963 172.496 199.379 173.248V170.848H201.587V184H199.379V181.552C198.947 182.32 198.299 182.96 197.435 183.472C196.587 183.968 195.595 184.216 194.459 184.216C193.291 184.216 192.235 183.928 191.291 183.352C190.347 182.776 189.603 181.968 189.059 180.928C188.515 179.888 188.243 178.704 188.243 177.376ZM199.379 177.4C199.379 176.408 199.179 175.544 198.779 174.808C198.379 174.072 197.835 173.512 197.147 173.128C196.475 172.728 195.731 172.528 194.915 172.528C194.099 172.528 193.355 172.72 192.683 173.104C192.011 173.488 191.475 174.048 191.075 174.784C190.675 175.52 190.475 176.384 190.475 177.376C190.475 178.384 190.675 179.264 191.075 180.016C191.475 180.752 192.011 181.32 192.683 181.72C193.355 182.104 194.099 182.296 194.915 182.296C195.731 182.296 196.475 182.104 197.147 181.72C197.835 181.32 198.379 180.752 198.779 180.016C199.179 179.264 199.379 178.392 199.379 177.4ZM207.462 173.272C207.894 172.52 208.534 171.896 209.382 171.4C210.246 170.888 211.246 170.632 212.382 170.632C213.55 170.632 214.606 170.912 215.55 171.472C216.51 172.032 217.262 172.824 217.806 173.848C218.35 174.856 218.622 176.032 218.622 177.376C218.622 178.704 218.35 179.888 217.806 180.928C217.262 181.968 216.51 182.776 215.55 183.352C214.606 183.928 213.55 184.216 212.382 184.216C211.262 184.216 210.27 183.968 209.406 183.472C208.558 182.96 207.91 182.328 207.462 181.576V190.24H205.278V170.848H207.462V173.272ZM216.39 177.376C216.39 176.384 216.19 175.52 215.79 174.784C215.39 174.048 214.846 173.488 214.158 173.104C213.486 172.72 212.742 172.528 211.926 172.528C211.126 172.528 210.382 172.728 209.694 173.128C209.022 173.512 208.478 174.08 208.062 174.832C207.662 175.568 207.462 176.424 207.462 177.4C207.462 178.392 207.662 179.264 208.062 180.016C208.478 180.752 209.022 181.32 209.694 181.72C210.382 182.104 211.126 182.296 211.926 182.296C212.742 182.296 213.486 182.104 214.158 181.72C214.846 181.32 215.39 180.752 215.79 180.016C216.19 179.264 216.39 178.384 216.39 177.376ZM222.192 184.144C221.776 184.144 221.424 184 221.136 183.712C220.848 183.424 220.704 183.072 220.704 182.656C220.704 182.24 220.848 181.888 221.136 181.6C221.424 181.312 221.776 181.168 222.192 181.168C222.592 181.168 222.928 181.312 223.2 181.6C223.488 181.888 223.632 182.24 223.632 182.656C223.632 183.072 223.488 183.424 223.2 183.712C222.928 184 222.592 184.144 222.192 184.144Z" fill="#E5E5E5"/>
</g>
<defs>
<filter id="filter0_d_52_4424" x="0" y="0" width="436" height="253" filterUnits="userSpaceOnUse" color-interpolation-filters="sRGB">
<feFlood flood-opacity="0" result="BackgroundImageFix"/>
<feColorMatrix in="SourceAlpha" type="matrix" values="0 0 0 0 0 0 0 0 0 0 0 0 0 0 0 0 0 0 127 0" result="hardAlpha"/>
<feOffset dy="4"/>
<feGaussianBlur stdDeviation="2"/>
<feComposite in2="hardAlpha" operator="out"/>
<feColorMatrix type="matrix" values="0 0 0 0 0 0 0 0 0 0 0 0 0 0 0 0 0 0 0.25 0"/>
<feBlend mode="normal" in2="BackgroundImageFix" result="effect1_dropShadow_52_4424"/>
<feBlend mode="normal" in="SourceGraphic" in2="effect1_dropShadow_52_4424" result="shape"/>
</filter>
</defs>
</svg>
