<svg width="37" height="36" viewBox="0 0 37 36" fill="none" xmlns="http://www.w3.org/2000/svg">
<path d="M14.8253 22.725L27.5378 10.0125C27.8378 9.7125 28.1878 9.5625 28.5878 9.5625C28.9878 9.5625 29.3378 9.7125 29.6378 10.0125C29.9378 10.3125 30.0878 10.669 30.0878 11.082C30.0878 11.495 29.9378 11.851 29.6378 12.15L15.8753 25.95C15.5753 26.25 15.2253 26.4 14.8253 26.4C14.4253 26.4 14.0753 26.25 13.7753 25.95L7.32527 19.5C7.02527 19.2 6.88127 18.844 6.89327 18.432C6.90527 18.02 7.06177 17.6635 7.36277 17.3625C7.66377 17.0615 8.02027 16.9115 8.43227 16.9125C8.84427 16.9135 9.20027 17.0635 9.50027 17.3625L14.8253 22.725Z" fill="#151515"/>
</svg>
