<svg width="40" height="40" viewBox="0 0 40 40" fill="none" xmlns="http://www.w3.org/2000/svg">
<circle cx="20" cy="20" r="20" fill="#252525"/>
<path d="M28.7097 11.6545C28.7097 11.6545 30.6523 10.897 30.4904 12.7366C30.4365 13.4942 29.9508 16.1454 29.573 19.0131L28.278 27.5079C28.278 27.5079 28.17 28.7524 27.1987 28.9688C26.2274 29.1852 24.7704 28.2113 24.5005 27.9949C24.2847 27.8326 20.4534 25.3977 19.1043 24.2074C18.7265 23.8827 18.2948 23.2334 19.1582 22.476L24.8244 17.0653C25.4719 16.416 26.1194 14.9009 23.4213 16.7406L15.8666 21.8808C15.8666 21.8808 15.0032 22.4219 13.3843 21.9349L9.87671 20.8527C9.87671 20.8527 8.58161 20.0412 10.7941 19.2295C16.1904 16.6865 22.8278 14.0893 28.7097 11.6545Z" fill="#E5E5E5"/>
</svg>
